<svg xmlns="http://www.w3.org/2000/svg" width="24" height="24" viewBox="0 0 24 24"><g><g><g><path fill="#a50050" d="M12 24c6.627 0 12-5.373 12-12S18.627 0 12 0 0 5.373 0 12s5.373 12 12 12z"/></g><g><g><path fill="#fff" d="M15.083 14.306l-.547.552v2.453h-8.62l.029-6.437h12.127l-.013 3.432h-2.976zm.364 2.495l.033-1.566 1.753-.002zM5 7.75v10.5h10.328l.154-.131 3.325-2.84.193-.165V7.75z"/></g><g><path fill="#fff" d="M7.63 6h.792v3.5H7.63z"/></g><g><path fill="#fff" d="M16.38 6h.792v3.5h-.792z"/></g></g></g></g></svg>