<?xml version="1.0" encoding="UTF-8"?>
<svg width="50px" height="46px" viewBox="0 0 50 46" version="1.1" xmlns="http://www.w3.org/2000/svg" xmlns:xlink="http://www.w3.org/1999/xlink">
    <!-- Generator: Sketch 52.6 (67491) - http://www.bohemiancoding.com/sketch -->
    <title>iconos</title>
    <desc>Created with Sketch.</desc>
    <g id="Info-Faqs" stroke="none" stroke-width="1" fill="none" fill-rule="evenodd">
        <g id="Info-Faqs.MODAL.desktop" transform="translate(-379.000000, -2027.000000)" fill-rule="nonzero">
            <g id="info" transform="translate(318.000000, 226.000000)">
                <g id="Group-14" transform="translate(40.165789, 1764.531561)">
                    <g id="ico" transform="translate(12.000000, 36.000000)">
                        <g id="iconos" transform="translate(9.071053, 0.000000)">
                            <path d="M29.9596711,45.529663 C29.1563789,45.529663 28.4226316,45.2321429 27.8723211,44.6814784 L25.3223474,42.1349075 C25.29715,42.113728 25.2729605,42.0925486 25.2517947,42.0703607 L23.4668132,40.2852397 L24.7105553,39.0406977 L26.4642921,40.7935453 C26.5056158,40.8268272 26.5419,40.8631348 26.5761684,40.902468 L29.1170711,43.4369364 C29.3529184,43.6729355 29.6835079,43.7879093 30.0604605,43.7657214 C30.4726895,43.7405078 30.8788711,43.5468676 31.2024053,43.2261509 C31.8333474,42.5937945 31.9290974,41.6578666 31.4130553,41.1414926 L32.6588132,39.8989677 C32.9289289,40.1712743 33.2675816,40.2267442 33.5004053,40.2277527 L33.5014132,40.2277527 C33.9438789,40.2277527 34.3934,40.0300783 34.7381,39.6851566 C35.3720658,39.0517916 35.4688237,38.1148552 34.9537895,37.5994898 L36.2005553,36.3569649 C36.4706711,36.6292715 36.8093237,36.6857499 37.0451711,36.6857499 C37.4866289,36.6857499 37.93615,36.489084 38.2798421,36.1441623 C38.9107842,35.5097888 39.00855,34.5718439 38.4945237,34.0574869 L39.7402816,32.8159706 C40.0114053,33.0882772 40.34905,33.1447556 40.5828816,33.1447556 L40.5848974,33.1447556 C41.0263553,33.1447556 41.4758763,32.9470812 41.8205763,32.6011509 C42.1683,32.2552207 42.3648395,31.8033935 42.3648395,31.3606431 C42.3648395,31.1266611 42.3073895,30.7898078 42.0362658,30.5195183 L28.6443684,17.1089226 L29.8881105,15.8643806 L43.2800079,29.2739677 C43.8232632,29.8165638 44.1216,30.5568344 44.1246237,31.3596346 C44.1246237,32.2653061 43.7386,33.1729948 43.0653263,33.84771 C42.3900368,34.5204082 41.4889789,34.9066801 40.5848974,34.9066801 C40.5818737,34.9066801 40.5808658,34.9066801 40.5768342,34.9066801 C40.5768342,35.7820954 40.2220553,36.687767 39.5256,37.3887043 C38.8543421,38.062411 37.9512684,38.448683 37.0451711,38.448683 C37.0451711,38.448683 37.0401316,38.448683 37.0391237,38.448683 C37.0371079,39.3251068 36.6823289,40.2327954 35.9818421,40.9327243 C35.3095763,41.6054224 34.4075105,41.9906858 33.5014132,41.9906858 L33.4993974,41.9906858 C33.4993974,42.8681182 33.1436105,43.7758068 32.4441316,44.4747271 C31.8202447,45.1000237 31.0109053,45.4731846 30.1703211,45.5266374 C30.1007763,45.5276459 30.0302237,45.529663 29.9596711,45.529663 Z" id="Shape" fill="#56274F"></path>
                            <polygon id="Shape" fill="#56274F" points="10.01545 26.8232084 7.45741316 24.2645349 22.8701395 8.83987897 26.5398842 12.5119839 25.2941263 13.7575344 22.8701395 11.328963 9.94691316 24.2645349 11.2581842 25.5776578"></polygon>
                            <polygon id="Rectangle-path" fill="#56274F" transform="translate(30.728193, 39.202902) rotate(44.991897) translate(-30.728193, -39.202902) " points="28.8959939 38.3216419 32.5598257 38.3228197 32.5603919 40.0841613 28.8965601 40.0829835"></polygon>
                            <polygon id="Rectangle-path" fill="#56274F" transform="translate(34.315713, 35.683813) rotate(44.975691) translate(-34.315713, -35.683813) " points="32.4814978 34.8030562 36.1493621 34.8042353 36.149928 36.5645692 32.4820637 36.5633901"></polygon>
                            <polygon id="Rectangle-path" fill="#56274F" transform="translate(37.782453, 32.145762) rotate(45.024309) translate(-37.782453, -32.145762) " points="35.9497493 31.2650065 39.614591 31.2661846 39.6151569 33.0265175 35.9503152 33.0253394"></polygon>
                            <g id="Group" transform="translate(6.047368, 23.196488)" fill="#AA004F">
                                <path d="M3.60221579,11.6274917 C2.78078158,11.6274917 2.00671842,11.3077836 1.42516316,10.7248458 C0.840584211,10.1419079 0.521081579,9.3663384 0.521081579,8.5423588 C0.522089474,7.71837921 0.8426,6.94482677 1.42516316,6.36390603 L6.10280263,1.67922402 C6.68738158,1.09729473 7.46144474,0.776578073 8.28388684,0.776578073 C9.10632895,0.776578073 9.88039211,1.09628619 10.4609395,1.67821547 C11.0435026,2.25913621 11.3640132,3.0336972 11.3640132,3.85666825 C11.3660289,4.68064784 11.0445105,5.45722591 10.4609395,6.04016374 L5.78128421,10.7248458 C5.19771316,11.3077836 4.42566579,11.6274917 3.60221579,11.6274917 Z M8.28388684,2.53951115 C7.9281,2.53951115 7.59650263,2.67667299 7.34654474,2.9257831 L2.66890526,7.61046512 C2.41693158,7.86058377 2.27985789,8.1923944 2.27985789,8.54538443 C2.27885,8.89938301 2.41693158,9.23220218 2.66890526,9.48232084 C3.16680526,9.98054105 4.03661842,9.98054105 4.53754211,9.48131229 L9.21719737,4.79864737 C9.46917105,4.54752017 9.60725263,4.214701 9.60725263,3.85969388 C9.60725263,3.50670384 9.46917105,3.17489321 9.21820526,2.9257831 C8.96824737,2.67566445 8.63564211,2.53951115 8.28388684,2.53951115 Z" id="Shape"></path>
                                <path d="M6.71459474,14.7428809 C5.89114474,14.7428809 5.11808947,14.4231728 4.53754211,13.8392264 C3.95497895,13.2572971 3.63547632,12.4827361 3.63547632,11.6597651 C3.63547632,10.8357855 3.95397105,10.062233 4.53754211,9.47929521 L9.21719737,4.79663028 C9.79976053,4.21369245 10.5738237,3.89297579 11.3962658,3.89297579 C12.2197158,3.89297579 12.9937789,4.21268391 13.5753342,4.79663028 C14.1558816,5.37553393 14.4774,6.14807784 14.4784079,6.97004034 C14.4794158,7.79502848 14.1578974,8.57160655 13.5753342,9.15555292 L8.89467105,13.8382178 C8.3111,14.4221642 7.53804474,14.7428809 6.71459474,14.7428809 Z M11.3962658,5.65389179 C11.0435026,5.65389179 10.7108974,5.79105363 10.4609395,6.04117228 L5.78128421,10.7258543 C5.53031842,10.9749644 5.39324474,11.306775 5.39324474,11.6607736 C5.39324474,12.0147722 5.53031842,12.3465828 5.78128421,12.5967015 C6.27918421,13.0969388 7.15000526,13.0939131 7.64992105,12.5946844 L12.3305842,7.913028 C12.58155,7.66089226 12.7206395,7.32807309 12.7196316,6.97306597 C12.7196316,6.62108448 12.58155,6.29129093 12.3315921,6.04318937 C12.0806263,5.79105363 11.7490289,5.65389179 11.3962658,5.65389179 Z" id="Shape"></path>
                                <path d="M9.82898947,17.8602871 C9.00654737,17.8602871 8.23046842,17.5385619 7.64992105,16.9546156 C7.06937368,16.3757119 6.74785526,15.6011509 6.74785526,14.7781799 C6.74583947,13.9542003 7.06635,13.1776222 7.64992105,12.5946844 L12.3305842,7.91201946 C12.9131474,7.33009018 13.6872105,7.00836497 14.5096526,7.00836497 C15.3331026,7.00836497 16.1091816,7.32908163 16.6917447,7.91201946 C17.2722921,8.4929402 17.5948184,9.26750119 17.5948184,10.0904722 C17.5948184,10.9134433 17.2733,11.6880043 16.6917447,12.2709421 L12.0100737,16.9546156 C11.4265026,17.5385619 10.6534474,17.8602871 9.82898947,17.8602871 Z M14.5096526,8.76827243 C14.1578974,8.76827243 13.8242842,8.90644281 13.5753342,9.15656146 L8.89467105,13.8392264 C8.64370526,14.089345 8.50562368,14.4231728 8.50562368,14.7771713 C8.50562368,15.1301614 8.64370526,15.4609635 8.89366316,15.7100736 C9.39761053,16.2153536 10.2633921,16.212328 10.7623,15.7120907 L15.4449789,11.0274086 C15.6959447,10.77729 15.8340263,10.4454794 15.8340263,10.0914808 C15.8340263,9.73849075 15.6959447,9.40668011 15.4459868,9.15757 C15.1970368,8.90745135 14.8644316,8.76827243 14.5096526,8.76827243 Z" id="Shape"></path>
                                <path d="M12.9433842,20.9746678 C12.1209421,20.9746678 11.3468789,20.6539511 10.7663316,20.0710133 C9.56592895,18.8718557 9.56391316,16.9152824 10.7633079,15.7120907 L15.4459868,11.0274086 C16.0275421,10.4444708 16.8016053,10.1237542 17.6240474,10.1237542 C18.4464895,10.1237542 19.2205526,10.4434623 19.8031158,11.0274086 C20.3836632,11.6083294 20.7041737,12.3838989 20.7041737,13.2078785 C20.7041737,14.0308495 20.3846711,14.8054105 19.8011,15.3873398 L15.1204368,20.0700047 C14.5419053,20.6539511 13.7658263,20.9746678 12.9433842,20.9746678 Z M17.6240474,11.8836616 C17.2712842,11.8836616 16.9396868,12.021832 16.6907368,12.2719506 L12.0090658,16.9556241 C11.4920158,17.4730066 11.4910079,18.3121144 12.00705,18.8254627 C12.5069658,19.3257 13.3767789,19.3257 13.8736711,18.8264713 L18.55635,14.1427978 C18.8083237,13.8926792 18.9443895,13.5608685 18.9443895,13.20687 C18.9443895,12.8538799 18.8083237,12.5210607 18.5583658,12.2709421 C18.3084079,12.0208234 17.9768105,11.8836616 17.6240474,11.8836616 Z" id="Shape"></path>
                            </g>
                            <path d="M6.04636053,22.8545918 L0.272131579,17.0746322 L15.6868737,1.65098481 L21.4621105,7.43195301 L6.04636053,22.8545918 Z M2.76163158,17.0756407 L6.04636053,20.3655078 L18.9746263,7.43296156 L15.6868737,4.1420859 L2.76163158,17.0756407 Z" id="Shape" fill="#78B800"></path>
                            <path d="M43.8988553,20.4169435 L30.257,6.76228049 L36.0312289,0.983329378 L49.6791316,14.641018 L43.8988553,20.4169435 Z M32.7434763,6.76228049 L43.8998632,17.9278595 L47.1896316,14.6390009 L36.0302211,3.47241338 L32.7434763,6.76228049 Z" id="Shape" fill="#78B800"></path>
                            <path d="M24.3628316,27.7682131 C22.6242132,27.7682131 21.1355526,26.5266967 20.8210895,24.8141908 L19.8363763,19.4326056 C19.7960605,19.1945895 19.7779184,18.9797698 19.7779184,18.7780612 C19.7849737,17.6969032 20.24155,16.6883602 21.0327474,16.0015425 L21.0337553,16.002551 C21.2736342,15.7524324 21.8944974,15.133187 23.6089263,13.4237067 L28.8419158,8.17020645 L42.5472684,21.883365 L38.0077105,26.3733982 L29.9526158,18.3817038 L28.1111921,20.2313716 L28.6826684,23.3770171 C28.7239921,23.6130161 28.74415,23.8238016 28.74415,24.0255102 C28.74415,25.7632297 27.5024237,27.2528477 25.7910184,27.5695301 L25.0099,27.7117347 C24.7921947,27.7500593 24.5765053,27.7682131 24.3628316,27.7682131 Z M22.3057184,17.2128026 L22.2875763,17.2420503 L22.1847711,17.3318106 C21.7715342,17.6898434 21.5407263,18.2062174 21.5366947,18.7820954 C21.5366947,18.8849668 21.5487895,19.0039748 21.5669316,19.1320598 L22.5506368,24.4964998 C22.7119,25.3709065 23.4738684,26.0062886 24.3618237,26.0062886 C24.4757158,26.0062886 24.5916237,25.9962031 24.7014842,25.9770408 L25.4725237,25.8368533 C26.3473763,25.6754865 26.9853737,24.913028 26.9853737,24.0245017 C26.9853737,23.9256645 26.9732789,23.8137162 26.9511053,23.6846227 L26.21635,19.6393569 L29.9485842,15.8946369 L38.0097263,23.8954082 L40.0507132,21.8752966 L28.8439316,10.6613075 L24.8536763,14.6682487 C23.7389447,15.7816801 22.5909526,16.9283935 22.3057184,17.2128026 Z" id="Shape" fill="#AA004F"></path>
                        </g>
                    </g>
                </g>
            </g>
        </g>
    </g>
</svg>