<?xml version="1.0" encoding="UTF-8"?>
<svg width="34px" height="30px" viewBox="0 0 34 30" version="1.1" xmlns="http://www.w3.org/2000/svg" xmlns:xlink="http://www.w3.org/1999/xlink">
    <!-- Generator: Sketch 52.6 (67491) - http://www.bohemiancoding.com/sketch -->
    <title>contacto</title>
    <desc>Created with Sketch.</desc>
    <g id="Page-1" stroke="none" stroke-width="1" fill="none" fill-rule="evenodd">
        <g id="contacto">
            <path d="M5.132,16.936 C5.74917821,16.936 6.2495,16.4356782 6.2495,15.8185 C6.2495,15.2013218 5.74917821,14.701 5.132,14.701 C4.51482179,14.701 4.0145,15.2013218 4.0145,15.8185 C4.0145,16.4356782 4.51482179,16.936 5.132,16.936 M8.767,16.936 C9.16660156,16.9354641 9.53556273,16.721784 9.73489941,16.375451 C9.93423609,16.0291179 9.9336643,15.6027481 9.73339941,15.256951 C9.53313453,14.9111538 9.16360156,14.6984641 8.764,14.699 C8.14626952,14.6998284 7.64617161,15.2012695 7.64700003,15.819 C7.64782846,16.4367305 8.14926952,16.9368284 8.767,16.936" id="Shape" fill="#41223E" fill-rule="nonzero"></path>
            <polyline id="Path" fill="#931D4E" points="17.759 21.204 8.163 21.204 6.113 23.631 6.113 21.204 2.007 21.204 2.007 10.649 10.427 10.649 10.427 8.639 0 8.639 0 23.212 4.103 23.212 4.103 29.12 9.096 23.212 19.768 23.212 19.768 16.815 17.758 16.815 17.758 21.204"></polyline>
            <path d="M12.437,14.806 L23.842,14.806 L26.523,17.978 L26.523,14.806 L31.36,14.806 L31.36,2.008 L12.437,2.008 L12.437,14.806 Z M26.371,6.893 C27.13122,6.89382843 27.7468284,7.51078004 27.746,8.271 C27.7451716,9.03121996 27.12822,9.64682843 26.368,9.646 C25.8762239,9.6454641 25.42209,9.38260949 25.176666,8.95645096 C24.9312421,8.53029243 24.9318139,8.00557359 25.178166,7.57995096 C25.4245182,7.15432833 25.8792239,6.8924641 26.371,6.893 Z M21.899,6.893 C22.65922,6.89382843 23.2748284,7.51078004 23.274,8.271 C23.2731716,9.03121996 22.65622,9.64682843 21.896,9.646 C21.13578,9.64517157 20.5201716,9.02821996 20.521,8.268 C20.5218284,7.50778004 21.13878,6.89217157 21.899,6.893 Z M17.426,6.893 C18.18622,6.89382843 18.8018284,7.51078004 18.801,8.271 C18.8001716,9.03121996 18.18322,9.64682843 17.423,9.646 C16.66278,9.64517157 16.0471716,9.02821996 16.048,8.268 C16.0488284,7.50778004 16.66578,6.89217157 17.426,6.893 Z" id="Shape" fill-rule="nonzero"></path>
            <path d="M10.429,0 L10.429,16.815 L22.909,16.815 L28.531,23.467 L28.531,16.815 L33.369,16.815 L33.369,0 L10.429,0 Z M31.36,14.806 L26.523,14.806 L26.523,17.978 L23.843,14.806 L12.436,14.806 L12.436,2.008 L31.36,2.008 L31.36,14.806 Z" id="Shape" fill="#41223E" fill-rule="nonzero"></path>
            <path d="M17.426,9.645 C17.9175975,9.6444641 18.3715663,9.38170479 18.616901,8.95570096 C18.8622356,8.52969713 18.8616638,8.00516889 18.615401,7.57970096 C18.3691381,7.15423303 17.9145975,6.8924641 17.423,6.893 C16.6630562,6.89382843 16.0476716,7.51055618 16.0485,8.2705 C16.0493284,9.03044382 16.6660562,9.64582843 17.426,9.645 M21.9,9.645 C22.3915975,9.6444641 22.8455663,9.38170479 23.090901,8.95570096 C23.3362356,8.52969713 23.3356638,8.00516889 23.089401,7.57970096 C22.8431381,7.15423303 22.3885975,6.8924641 21.897,6.893 C21.1370562,6.89355228 20.5214477,7.51005618 20.522,8.27 C20.5225523,9.02994382 21.1390562,9.64555228 21.899,9.645 M26.37,9.645 C27.1299438,9.64472386 27.7457761,9.02844382 27.7455,8.2685 C27.7452239,7.50855618 27.1289438,6.89272386 26.369,6.893 C25.6090562,6.89355228 24.9934477,7.51005618 24.994,8.27 C24.9945523,9.02994382 25.6110562,9.64555228 26.371,9.645" id="Shape" fill="#6CB744" fill-rule="nonzero"></path>
        </g>
    </g>
</svg>