<svg xmlns="http://www.w3.org/2000/svg" xmlns:xlink="http://www.w3.org/1999/xlink" width="17" height="24" viewBox="0 0 17 24"><defs><path id="th5da" d="M479.111 343h-9.33c-.984 0-1.781.799-1.781 1.784v20.432c0 .985.792 1.784 1.775 1.784h13.338c.981 0 1.776-.798 1.776-1.77v-16.008L479.556 343h-.445z"/><path id="th5db" d="M478.668 343.89h-8.893a.89.89 0 0 0-.885.885v20.452a.89.89 0 0 0 .889.885h13.333c.491 0 .89-.395.89-.883v-15.117h-3.558c-.981 0-1.776-.788-1.776-1.783v-4.439z"/><path id="th5dc" d="M479.56 344.33v3.992c0 .495.4.897.886.897h3.292l-4.178-4.889z"/><path id="th5dd" d="M475.996 362.602l-2.89-2.889-.666.667 4 4 4-4-.667-.667-2.889 2.89v-9.823h-.888v9.822z"/></defs><g><g transform="translate(-468 -343)"><g><use fill="#48194d" xlink:href="#th5da"/></g><g><use fill="#fff" xlink:href="#th5db"/></g><g><use fill="#84bd00" xlink:href="#th5dc"/></g><g><use fill="#ac0a5e" xlink:href="#th5dd"/></g></g></g></svg>