<?xml version="1.0" encoding="UTF-8"?>
<svg width="32px" height="42px" viewBox="0 0 32 42" version="1.1" xmlns="http://www.w3.org/2000/svg" xmlns:xlink="http://www.w3.org/1999/xlink">
    <!-- Generator: Sketch 52.6 (67491) - http://www.bohemiancoding.com/sketch -->
    <title>documento</title>
    <desc>Created with Sketch.</desc>
    <g id="Page-1" stroke="none" stroke-width="1" fill="none" fill-rule="evenodd">
        <g id="documento" transform="translate(1.000000, 1.000000)">
            <g transform="translate(15.000000, 20.000000) scale(-1, 1) translate(-15.000000, -20.000000) ">
                <polygon id="Shape" stroke="#48194D" stroke-width="2" points="0 -8.8817842e-16 30 -8.8817842e-16 30 40 0 40"></polygon>
                <polygon id="Path" fill="#AC095E" points="3 11.048 18 11.048 18 13.952 3.00274876 13.952"></polygon>
                <polygon id="Path" fill="#8EBA18" points="20 11.048 27 11.048 27 13.952 20 13.952"></polygon>
                <polygon id="Path" fill="#AC095E" points="3 6.048 18 6.048 18 8.952 3.00274876 8.952"></polygon>
                <polygon id="Path" fill="#8EBA18" points="20 6.048 27 6.048 27 8.952 20 8.952"></polygon>
                <polygon id="Path" fill="#AC095E" points="3 16.048 18 16.048 18 18.952 3.00274876 18.952"></polygon>
                <polygon id="Path" fill="#8EBA18" points="20 16.048 27 16.048 27 18.952 20 18.952"></polygon>
                <polygon id="Path" fill="#AC095E" points="3 21.048 18 21.048 18 23.952 3.00274876 23.952"></polygon>
                <polygon id="Path" fill="#8EBA18" points="20 21.048 27 21.048 27 23.952 20 23.952"></polygon>
                <polygon id="Path" fill="#AC095E" points="3 26.0495 18 26.0495 18 28.9505 3.00274876 28.9505"></polygon>
                <polygon id="Path" fill="#8EBA18" points="20 26.0495 27 26.0495 27 28.9505 20 28.9505"></polygon>
                <polygon id="Path" fill="#AC095E" points="3 31.048 18 31.048 18 33.952 3.00274876 33.952"></polygon>
                <polygon id="Path" fill="#8EBA18" points="20 31.048 27 31.048 27 33.952 20 33.952"></polygon>
            </g>
        </g>
    </g>
</svg>