<?xml version="1.0" encoding="UTF-8"?>
<svg width="20px" height="18px" viewBox="0 0 20 18" version="1.1" xmlns="http://www.w3.org/2000/svg" xmlns:xlink="http://www.w3.org/1999/xlink">
    <!-- Generator: Sketch 52.6 (67491) - http://www.bohemiancoding.com/sketch -->
    <title>icono caution monocolor</title>
    <desc>Created with Sketch.</desc>
    <g id="Page-1" stroke="none" stroke-width="1" fill="none" fill-rule="evenodd">
        <g id="botones-y-banners" transform="translate(-748.000000, -934.000000)">
            <g id="avisos-copy-3" transform="translate(726.000000, 857.000000)">
                <g id="AVISO" transform="translate(20.000000, 64.000000)">
                    <g id="icono-caution-monocolor" transform="translate(2.000000, 13.000000)">
                        <path d="M19.760295,16.490287 L10.5245994,0.342280967 C10.4038617,0.131170695 10.1731575,0 9.92272423,0 C9.672236,0 9.44164174,0.131170695 9.32084904,0.342280967 L0.0850984953,16.490287 C-0.0320121713,16.695 -0.0280004028,16.9440181 0.0955950403,17.1452417 C0.219190483,17.3464124 0.444014386,17.4698112 0.686918725,17.4698112 L19.1584748,17.4698112 C19.4014341,17.4698112 19.626258,17.3464124 19.7498534,17.1452417 C19.8734489,16.9440181 19.8774057,16.695 19.760295,16.490287 L19.760295,16.490287 Z M1.84901265,16.148006 L9.92272423,2.03174471 L17.9964358,16.148006 L1.84901265,16.148006 L1.84901265,16.148006 Z" id="Shape" fill="#E10000"></path>
                        <polygon id="Path" stroke="#E10000" fill="#E10000" points="1.84901265 16.148006 9.92272423 2.03174471 17.9964358 16.148006"></polygon>
                        <path d="M9.06769592,11.5265257 C9.06769592,11.983852 9.45315543,12.3547356 9.92857747,12.3547356 C10.4039446,12.3547356 10.789459,11.983852 10.789459,11.5265257 L10.789459,6.74966012 C10.789459,6.29228097 10.4039446,5.92145015 9.92857747,5.92145015 C9.45315543,5.92145015 9.06769592,6.29233384 9.06769592,6.74966012 L9.06769592,11.5265257 Z" id="Shape" fill="#FFFFFF"></path>
                        <path d="M9.91950977,13.2175227 C9.41957747,13.2175227 9.01274018,13.6087085 9.01274018,14.0898792 C9.01274018,14.5708912 9.41957747,14.9622356 9.91950977,14.9622356 C10.4194421,14.9622356 10.8262794,14.5708912 10.8262794,14.0898792 C10.8262794,13.6087613 10.4193871,13.2175227 9.91950977,13.2175227 L9.91950977,13.2175227 Z" id="Shape" fill="#FFFFFF"></path>
                    </g>
                </g>
            </g>
        </g>
    </g>
</svg>