<?xml version="1.0" encoding="UTF-8"?>
<svg width="48px" height="56px" viewBox="0 0 48 56" version="1.1" xmlns="http://www.w3.org/2000/svg" xmlns:xlink="http://www.w3.org/1999/xlink">
    <!-- Generator: Sketch 52.6 (67491) - http://www.bohemiancoding.com/sketch -->
    <title>ico</title>
    <desc>Created with Sketch.</desc>
    <g id="Info-Faqs" stroke="none" stroke-width="1" fill="none" fill-rule="evenodd">
        <g id="Info-Faqs.MODAL.desktop" transform="translate(-381.000000, -1120.000000)">
            <g id="info" transform="translate(318.000000, 226.000000)">
                <g id="Group-9" transform="translate(40.165789, 891.697200)">
                    <g id="ico" transform="translate(12.094737, 1.000000)">
                        <g id="iconos" transform="translate(37.796053, 25.717845) rotate(10.000000) translate(-37.796053, -25.717845) translate(20.157895, 3.025629)" fill-rule="nonzero">
                            <polygon id="Rectangle-path" fill="#FFFFFF" points="7.93011579 2.62826293 33.0468526 2.62826293 33.0468526 36.1421452 7.93011579 36.1421452"></polygon>
                            <path d="M34.9316158,38.0281206 L6.04333684,38.0281206 L6.04333684,0.74127907 L34.9316158,0.74127907 L34.9316158,38.0281206 Z M8.88963158,35.304046 L32.4602579,35.3766611 L32.2566632,3.40080683 L8.68402105,3.32819174 L8.88963158,35.304046 Z" id="Shape" fill="#56274F"></path>
                            <polygon id="Rectangle-path" fill="#FFFFFF" points="1.97748947 9.7021832 27.0962421 9.7021832 27.0962421 43.215057 1.97748947 43.215057"></polygon>
                            <path d="M28.9810053,45.1020408 L0.0907105263,45.1020408 L0.0907105263,7.81519934 L28.9810053,7.81519934 L28.9810053,45.1020408 Z M2.70720526,42.4425131 L26.2838789,42.4425131 L26.3564474,10.4747271 L2.77977368,10.4747271 L2.70720526,42.4425131 Z" id="Shape" fill="#56274F"></path>
                            <polygon id="Rectangle-path" fill="#AA004F" points="5.32571579 15.8280731 16.48815 15.8280731 16.48815 18.6590532 5.32571579 18.6590532"></polygon>
                            <polygon id="Rectangle-path" fill="#78B800" points="18.0715526 15.8280731 23.1856105 15.8280731 23.1856105 18.6590532 18.0715526 18.6590532"></polygon>
                            <polygon id="Rectangle-path" fill="#AA004F" points="5.32571579 19.7392027 16.48815 19.7392027 16.48815 22.5691742 5.32571579 22.5691742"></polygon>
                            <polygon id="Rectangle-path" fill="#78B800" points="18.0715526 19.7392027 23.1856105 19.7392027 23.1856105 22.5691742 18.0715526 22.5691742"></polygon>
                            <polygon id="Rectangle-path" fill="#AA004F" points="5.32571579 23.6473066 16.48815 23.6473066 16.48815 26.4792952 5.32571579 26.4792952"></polygon>
                            <polygon id="Rectangle-path" fill="#78B800" points="18.0715526 23.6473066 23.1856105 23.6473066 23.1856105 26.4792952 18.0715526 26.4792952"></polygon>
                            <polygon id="Rectangle-path" fill="#AA004F" points="5.32571579 27.5584362 16.48815 27.5584362 16.48815 30.3873991 5.32571579 30.3873991"></polygon>
                            <polygon id="Rectangle-path" fill="#78B800" points="18.0715526 27.5584362 23.1856105 27.5584362 23.1856105 30.3873991 18.0715526 30.3873991"></polygon>
                            <polygon id="Rectangle-path" fill="#AA004F" points="5.32571579 31.4675486 16.48815 31.4675486 16.48815 34.2995373 5.32571579 34.2995373"></polygon>
                            <polygon id="Rectangle-path" fill="#78B800" points="18.0715526 31.4675486 23.1856105 31.4675486 23.1856105 34.2995373 18.0715526 34.2995373"></polygon>
                            <polygon id="Rectangle-path" fill="#AA004F" points="5.32571579 35.3766611 16.48815 35.3766611 16.48815 38.2076412 5.32571579 38.2076412"></polygon>
                            <polygon id="Rectangle-path" fill="#78B800" points="18.0715526 35.3766611 23.1856105 35.3766611 23.1856105 38.2076412 18.0715526 38.2076412"></polygon>
                        </g>
                        <g id="iconos" transform="translate(11.086842, 31.264832)">
                            <polygon id="Path" fill="#FFFFFF" points="1.41088359 16.8205827 21.9973962 16.827187 22.0045039 1.36657709 1.41799131 1.36048084"></polygon>
                            <path d="M23.1808326,25.1170773 L0.227447228,25.1170773 L0.227447228,0.181363577 L23.1808326,0.181363577 L23.1808326,25.1170773 Z M1.41088359,16.8205827 L21.9973962,16.827187 L22.0045039,1.36657709 L1.41799131,1.36048084 L1.41088359,16.8205827 Z" id="Shape" fill="#56274F" fill-rule="nonzero"></path>
                            <g id="Group" transform="translate(4.569252, 3.048127)" fill-rule="nonzero">
                                <polygon id="Rectangle-path" fill="#78B800" points="3.56960148 0.451122847 4.16868123 0.451122847 4.16868123 2.69556061 3.56960148 2.69556061"></polygon>
                                <path d="M8.80190312,11.0245686 L5.09877793,11.0245686 L5.09877793,6.31673589 L8.80190312,6.31673589 L8.80190312,11.0245686 Z M5.69734999,10.4251035 L8.20333106,10.4251035 L8.20333106,6.91620094 L5.69734999,6.91620094 L5.69734999,10.4251035 Z" id="Shape" fill="#78B800"></path>
                                <polygon id="Shape" fill="#56274F" points="12.3704892 11.0266007 1.53019184 11.0266007 1.53019184 3.94173667 2.12774851 3.94173667 2.12774851 10.4276436 11.7724248 10.4276436 11.7724248 3.96916982 12.3704892 3.96916982"></polygon>
                                <polygon id="Shape" fill="#AA004F" points="13.2229086 5.01213739 6.85946317 1.22280709 0.646803055 5.01061333 0.334570811 4.49903596 6.85540161 0.52326186 13.5280331 4.49751189"></polygon>
                            </g>
                        </g>
                    </g>
                </g>
            </g>
        </g>
    </g>
</svg>