<?xml version="1.0" encoding="UTF-8"?>
<svg width="46px" height="44px" viewBox="0 0 46 44" version="1.1" xmlns="http://www.w3.org/2000/svg" xmlns:xlink="http://www.w3.org/1999/xlink">
    <!-- Generator: Sketch 52.6 (67491) - http://www.bohemiancoding.com/sketch -->
    <title>iconos</title>
    <desc>Created with Sketch.</desc>
    <g id="Info-Faqs" stroke="none" stroke-width="1" fill="none" fill-rule="evenodd">
        <g id="Info-Faqs.MODAL.desktop" transform="translate(-381.000000, -620.000000)" fill-rule="nonzero">
            <g id="info" transform="translate(318.000000, 226.000000)">
                <g id="ico" transform="translate(46.260526, 394.229236)">
                    <g id="iconos" transform="translate(16.094737, 0.000000)">
                        <path d="M2.44386046,22.7478673 C2.44386046,11.957337 11.0751092,1.86932143 23.5725646,1.86932143 C35.6910516,1.86932143 44.6988394,11.9962305 44.6988394,23.0128296 C44.6988394,23.0334918 44.6988394,23.0480769 44.6988394,23.0687391 L46.3604702,23.0687391 C46.3604702,23.0480769 46.3653287,23.0334918 46.3653287,23.0128296 C46.3653287,10.4368421 36.1380399,0.205406581 23.5725646,0.205406581 C11.0058746,0.205406581 0.781015047,10.4368421 0.781015047,23.0128296 C0.781015047,23.0334918 0.785873617,23.0480769 0.785873617,23.0687391 L2.43414332,23.0687391 C2.43414332,23.0480769 2.44386046,23.0675237 2.44386046,22.7478673 Z" id="Shape" fill="#78B800"></path>
                        <path d="M23.5713499,43.0588104 C12.4962408,43.0588104 3.48237969,34.0403676 3.48237969,22.950843 C3.48237969,11.8661802 12.4962408,2.85016824 23.5713499,2.85016824 C34.6476738,2.85016824 43.6603202,11.8661802 43.6603202,22.950843 C43.6603202,34.0403676 34.6476738,43.0588104 23.5713499,43.0588104 M23.5713499,6.65079771 C14.5890696,6.65079771 7.2805664,13.9640013 7.2805664,22.950843 C7.2805664,31.9425465 14.5902842,39.2593963 23.5713499,39.2593963 C32.5524157,39.2593963 39.8621335,31.9425465 39.8621335,22.950843 C39.8621335,13.9627858 32.5536303,6.65079771 23.5713499,6.65079771" id="Shape" fill="#56274F"></path>
                        <g id="Group" transform="translate(0.000000, 17.015930)">
                            <polygon id="Rectangle-path" fill="#56274F" points="13.3379879 2.23273308 21.4141451 2.23273308 21.4141451 6.03214712 13.3379879 6.03214712"></polygon>
                            <polygon id="Rectangle-path" fill="#56274F" points="26.1597528 2.23273308 34.23591 2.23273308 34.23591 6.03214712 26.1597528 6.03214712"></polygon>
                            <polygon id="Rectangle-path" fill="#AA004F" points="20.4047773 15.0663904 26.1597528 15.0663904 26.1597528 18.8658045 20.4047773 18.8658045"></polygon>
                            <polygon id="Rectangle-path" fill="#AA004F" transform="translate(11.291754, 13.478543) rotate(20.297864) translate(-11.291754, -13.478543) " points="0.87744245 11.575592 21.705271 11.5799499 21.706066 15.3814932 0.878237476 15.3771353"></polygon>
                            <g fill="#78B800" id="Rectangle-path">
                                <polygon points="42.5756445 0.0267393183 46.3738312 0.0267393183 46.3738312 11.5793402 42.5756445 11.5793402"></polygon>
                                <polygon points="0.768868623 0.0267393183 4.56948462 0.0267393183 4.56948462 11.5793402 0.768868623 11.5793402"></polygon>
                            </g>
                        </g>
                    </g>
                </g>
            </g>
        </g>
    </g>
</svg>