<svg xmlns="http://www.w3.org/2000/svg" width="265.984" height="265.87" viewBox="0 0 265.984 265.87"><path d="M116.196 267.823c-55.171-6.92-101.088-47.553-114.793-101.58C-13.438 107.738 12.388 46.335 64.745 15.64 128.997-22.028 212.412.043 250.347 64.75c30.941 52.777 22.087 120.71-21.403 164.2-29.501 29.5-71.641 44.03-112.748 38.874zm36.862-22.399c44.727-8.485 78.742-40.08 90.71-84.258 2.382-8.797 2.619-11.34 2.619-28.17 0-16.83-.237-19.373-2.62-28.17-5.653-20.87-15.15-37.347-30.204-52.4-15.054-15.055-31.53-24.552-52.401-30.205-8.797-2.383-11.34-2.62-28.17-2.62-16.83 0-19.373.237-28.17 2.62-20.87 5.653-37.347 15.15-52.4 30.204-15.055 15.054-24.552 31.53-30.205 52.401-2.383 8.797-2.62 11.34-2.62 28.17 0 16.83.237 19.373 2.62 28.17 8.804 32.503 29.865 58.727 59.222 73.74 15.926 8.144 31.826 11.915 50.692 12.02 7.613.042 15.936-.555 20.927-1.502zm-28.939-92.143c-2.092-.813-32.328-47.32-31.748-48.831.725-1.888 14.604-11.454 16.62-11.454 1.07 0 5.93 6.373 13.346 17.5 7.669 11.508 12.26 17.502 13.408 17.506.96.003 19.193-.716 40.517-1.6 21.323-.882 39.436-1.35 40.25-1.037 1.966.755 2.173 20.845.23 22.363-1.167.912-15.746 1.912-62.25 4.272-10.45.53-21.25 1.155-24 1.39-2.75.234-5.618.185-6.373-.109z" fill="#ad96a9"/><path d="M121.492 267.365c-33.305-3.622-60.755-16.545-83.54-39.33C18.16 208.244 5.203 183.676.293 156.629c-2.206-12.154-2.206-35.11 0-47.264C7.866 67.647 35.257 31.296 73.492 12.22 83.872 7.042 97.906 2.377 109.36.297c12.154-2.206 35.11-2.206 47.264 0 41.717 7.573 78.068 34.964 97.144 73.199 5.178 10.38 9.843 24.414 11.923 35.868 2.206 12.154 2.206 35.11 0 47.264-7.573 41.717-34.964 78.068-73.199 97.144-10.365 5.17-24.447 9.856-35.337 11.755-9.02 1.574-28.744 2.59-35.663 1.838zm32.276-20.886c41.218-7.819 75.442-37.472 88.558-76.73 4.022-12.04 5.666-22.705 5.666-36.753 0-14.048-1.644-24.713-5.666-36.752-11.41-34.153-39.435-61.777-74.197-73.135-21.187-6.922-49.087-6.922-70.274 0-34.762 11.358-62.787 38.982-74.197 73.135-7.486 22.409-7.699 50.018-.553 71.889 12.991 39.761 45.659 69.05 86.887 77.898 10.927 2.345 32.605 2.567 43.776.448zm-32.63-97.44c-7.112-9.818-28.144-42.807-28.127-44.116.018-1.297 14.483-11.938 16.218-11.93.405.001 6.148 8.103 12.763 18.003 11.355 16.995 12.203 18 15.185 18 1.737 0 19.766-.71 40.064-1.577 20.297-.868 37.545-1.332 38.328-1.032 1.1.422 1.423 2.822 1.423 10.559 0 9.58-.097 10.032-2.25 10.474-1.238.254-18.675 1.421-38.75 2.594-20.075 1.172-39.944 2.38-44.153 2.682l-7.653.55z" fill="#98c542"/><path d="M121.492 267.365c-33.305-3.622-60.755-16.545-83.54-39.33C18.16 208.244 5.203 183.676.293 156.629c-2.206-12.154-2.206-35.11 0-47.264C7.866 67.647 35.257 31.296 73.492 12.22 83.872 7.042 97.906 2.377 109.36.297c12.154-2.206 35.11-2.206 47.264 0 41.717 7.573 78.068 34.964 97.144 73.199 5.178 10.38 9.843 24.414 11.923 35.868 2.206 12.154 2.206 35.11 0 47.264-7.573 41.717-34.964 78.068-73.199 97.144-10.365 5.17-24.447 9.856-35.337 11.755-9.02 1.574-28.744 2.59-35.663 1.838zm32.276-20.886c41.218-7.819 75.442-37.472 88.558-76.73 4.022-12.04 5.666-22.705 5.666-36.753 0-14.048-1.644-24.713-5.666-36.752-11.41-34.153-39.435-61.777-74.197-73.135-21.187-6.922-49.087-6.922-70.274 0-34.762 11.358-62.787 38.982-74.197 73.135-7.486 22.409-7.699 50.018-.553 71.889 12.991 39.761 45.659 69.05 86.887 77.898 10.927 2.345 32.605 2.567 43.776.448zm-44.375-117.894c-8.65-12.978-15.541-23.745-15.314-23.926 3.444-2.752 13.908-9.663 14.631-9.663.531 0 6.23 7.9 12.663 17.555 8.999 13.503 12.093 17.437 13.409 17.045 2.63-.785 79.19-3.822 80.795-3.206 1.09.418 1.415 2.846 1.415 10.556 0 9.579-.097 10.032-2.25 10.476-3.77.777-59.438 3.49-72.591 3.537-6.788.025-13.397.31-14.686.633-2.133.535-3.771-1.551-18.072-23.007z" fill="#986d8c"/><path d="M111.992 265.458c-20.297-3.209-43.096-12.804-59.075-24.862-71.832-54.205-71.832-160.995 0-215.2C63.31 17.553 82.264 8.023 94.492 4.492c33.262-9.605 67.237-6.652 98 8.516 80.71 39.797 99.764 146.914 37.727 212.104-20.861 21.921-47.628 35.934-77.227 40.43-11.595 1.76-29.568 1.724-41-.084zm36.566-17.534c24.045-3.345 46.393-14.242 64.328-31.368 36.467-34.821 46.3-88.017 24.634-133.28-5.774-12.063-11.14-19.84-20.433-29.614-46.4-48.8-121.79-48.8-168.19 0-9.293 9.774-14.66 17.55-20.433 29.614C.944 140.77 25.382 209.782 83.048 237.42c20.604 9.875 43.56 13.555 65.51 10.503zm-39.18-119.363c-8.642-12.965-15.526-23.72-15.299-23.902 3.444-2.752 13.908-9.663 14.631-9.663.531 0 6.213 7.875 12.627 17.5 6.414 9.625 11.997 17.49 12.408 17.478.41-.012 15.822-.677 34.247-1.478 18.425-.8 36.762-1.466 40.75-1.478l7.25-.022v20l-2.75.01c-1.513.005-13.325.662-26.25 1.46-12.925.798-30.925 1.71-40 2.027-9.075.318-17.716.816-19.202 1.109-2.566.505-3.491-.653-18.413-23.04z" fill="#734c6e"/><path d="M110.492 264.415c-27.305-4.782-51.676-17.516-71.54-37.38C13.215 201.299 0 169.396 0 132.997s13.215-68.302 38.952-94.04C64.708 13.201 96.571.012 133.066 0c36.199-.012 68.31 13.301 93.966 38.956 25.737 25.738 38.952 57.641 38.952 94.04 0 36.399-13.215 68.302-38.952 94.04-20.042 20.042-44.565 32.778-71.966 37.378-11.562 1.94-33.498 1.941-44.574.002zm47.81-17.387c36.39-8.14 67.16-33.853 82.232-68.716 17.264-39.932 9.747-88.057-18.925-121.16-47.235-54.534-130-54.534-177.234 0-28.672 33.103-36.19 81.228-18.926 121.16 16.6 38.393 51.287 64.836 92.72 70.681 9.34 1.318 29.972.307 40.133-1.965zM109.2 128.294c-8.543-12.818-15.347-23.454-15.12-23.635 3.47-2.773 13.911-9.663 14.643-9.663.537 0 5.997 7.537 12.134 16.75 10.078 15.13 17.236 24.28 15.543 19.869-.342-.89-.46-1.64-.264-1.667 2.196-.295 66.332-2.889 72.107-2.916l7.75-.036v20l-3.75.056c-2.063.03-16.8.865-32.75 1.855s-29.687 1.453-30.526 1.03c-.84-.425-2.19-.41-3 .03-.81.442-5.92.99-11.354 1.218l-9.88.415-15.533-23.306z" fill="#75b503"/><path d="M110.492 264.415c-27.305-4.782-51.676-17.516-71.54-37.38C13.215 201.299 0 169.396 0 132.997s13.215-68.302 38.952-94.04C64.708 13.201 96.571.012 133.066 0c36.199-.012 68.31 13.301 93.966 38.956 25.737 25.738 38.952 57.641 38.952 94.04 0 36.399-13.215 68.302-38.952 94.04-20.042 20.042-44.565 32.778-71.966 37.378-11.562 1.94-33.498 1.941-44.574.002zm47.81-17.387c36.39-8.14 67.16-33.853 82.232-68.716 17.264-39.932 9.747-88.057-18.925-121.16-47.235-54.534-130-54.534-177.234 0-28.672 33.103-36.19 81.228-18.926 121.16 16.6 38.393 51.287 64.836 92.72 70.681 9.34 1.318 29.972.307 40.133-1.965zm-8.961-96.713c-1.578-.575-13.784-19.217-13.058-19.944.602-.601 58.2-3.274 71.959-3.339l7.75-.036v10c0 9.877-.03 10-2.39 10-2.735 0-50.557 2.754-58.11 3.346-2.75.216-5.518.204-6.151-.027z" fill="#a70f53"/><path d="M110.492 264.415c-27.305-4.782-51.676-17.516-71.54-37.38C13.215 201.299 0 169.396 0 132.997s13.215-68.302 38.952-94.04C64.708 13.201 96.571.012 133.066 0c36.199-.012 68.31 13.301 93.966 38.956 25.737 25.738 38.952 57.641 38.952 94.04 0 36.399-13.215 68.302-38.952 94.04-20.042 20.042-44.565 32.778-71.966 37.378-11.562 1.94-33.498 1.941-44.574.002zm47.81-17.387c36.39-8.14 67.16-33.853 82.232-68.716 17.264-39.932 9.747-88.057-18.925-121.16-47.235-54.534-130-54.534-177.234 0-28.672 33.103-36.19 81.228-18.926 121.16 16.6 38.393 51.287 64.836 92.72 70.681 9.34 1.318 29.972.307 40.133-1.965z" fill="#56264f"/></svg>