<?xml version="1.0" encoding="UTF-8"?>
<svg width="22px" height="22px" viewBox="0 0 22 22" version="1.1" xmlns="http://www.w3.org/2000/svg" xmlns:xlink="http://www.w3.org/1999/xlink">
    <!-- Generator: Sketch 52.6 (67491) - http://www.bohemiancoding.com/sketch -->
    <title>info</title>
    <desc>Created with Sketch.</desc>
    <g id="Page-1" stroke="none" stroke-width="1" fill="none" fill-rule="evenodd">
        <g id="info" fill="#51284F">
            <path d="M11,22 C4.97,22 0.126,17.158 0.126,11.128 C0.126,5.098 4.97,0.253 11,0.253 C17.03,0.253 21.874,5.097 21.874,11.128 C21.874,17.159 17.03,22 11,22 Z M11,2.231 C6.058,2.231 2.103,6.185 2.103,11.128 C2.103,16.07 6.058,20.025 11,20.025 C15.941,20.025 19.896,16.07 19.896,11.128 C19.896,6.185 15.941,2.231 11,2.231 Z" id="Shape" fill-rule="nonzero"></path>
            <rect id="Rectangle" x="10.126" y="9.103" width="1.581" height="6.752"></rect>
            <path d="M10.917,8.263 C11.41,8.263 11.707,7.867 11.707,7.472 C11.707,7.077 11.311,6.679 10.917,6.679 C10.423,6.679 10.126,7.077 10.126,7.472 C10.026,7.866 10.423,8.263 10.917,8.263 Z" id="Shape_1_"></path>
        </g>
    </g>
</svg>