<?xml version="1.0" encoding="UTF-8"?>
<svg width="30px" height="34px" viewBox="0 0 30 34" version="1.1" xmlns="http://www.w3.org/2000/svg" xmlns:xlink="http://www.w3.org/1999/xlink">
    <!-- Generator: Sketch 52.6 (67491) - http://www.bohemiancoding.com/sketch -->
    <title>plazo</title>
    <desc>Created with Sketch.</desc>
    <g id="Page-1" stroke="none" stroke-width="1" fill="none" fill-rule="evenodd">
        <g id="plazo">
            <polygon id="Path" fill="#AA004F" points="13 18.4411765 24 18 24 20.3823529 13.792 21"></polygon>
            <polygon id="Path" fill="#78B800" points="10 15.4 11.8591549 14 16 20.8133333 13.3802817 21"></polygon>
            <path d="M16.2426036,3.86772487 L18.4615385,1.61904762 L16.8639053,0 L13.5798817,3.32804233 L11.9822485,4.94708995 L16.7751479,9.8042328 L18.3727811,8.18518519 L16.2426036,6.02645503 C22.6331361,6.74603175 27.6923077,12.2328042 27.6923077,18.8888889 C27.6923077,26.0846561 21.9230769,31.8412698 14.9112426,31.8412698 C7.81065089,31.8412698 2.13017751,25.994709 2.13017751,18.8888889 C2.13017751,14.9312169 3.90532544,11.4232804 6.65680473,8.99470899 C6.39053254,8.45502646 5.94674556,7.73544974 5.59171598,7.01587302 C2.13017751,9.8042328 0,14.031746 0,18.7989418 C0,27.1640212 6.74556213,34 15,34 C23.2544379,34 30,27.1640212 30,18.7989418 C29.9112426,10.973545 23.8757396,4.4973545 16.2426036,3.86772487 Z" id="Path" fill="#56274F"></path>
        </g>
    </g>
</svg>