<?xml version="1.0" encoding="UTF-8"?>
<svg width="44px" height="31px" viewBox="0 0 44 31" version="1.1" xmlns="http://www.w3.org/2000/svg" xmlns:xlink="http://www.w3.org/1999/xlink">
    <!-- Generator: Sketch 52.6 (67491) - http://www.bohemiancoding.com/sketch -->
    <title>icono</title>
    <desc>Created with Sketch.</desc>
    <g id="Info-Faqs" stroke="none" stroke-width="1" fill="none" fill-rule="evenodd">
        <g id="Info-Faqs.MODAL.desktop" transform="translate(-381.000000, -2290.000000)" fill="#AA004F">
            <g id="info" transform="translate(318.000000, 226.000000)">
                <g id="Group-3" transform="translate(54.165789, 2053.043189)">
                    <g id="2">
                        <g id="icono" transform="translate(0.834211, 0.956811)">
                            <path d="M22.4708282,10.0994556 C23.0361434,10.2714827 23.3276222,10.7940892 23.1218643,11.2667297 L10.8274616,39.507849 C10.6217037,39.9804896 9.99662544,40.224185 9.43131022,40.0521579 C8.86599501,39.8801308 8.57451622,39.3575244 8.78027413,38.8848838 L21.0746768,10.6437645 C21.2804347,10.1711239 21.905513,9.92742851 22.4708282,10.0994556 Z M50.6927834,40.0521579 C50.1274682,40.224185 49.5023899,39.9804896 49.296632,39.507849 L37.0022294,11.2667297 C36.7964715,10.7940892 37.0879503,10.2714827 37.6532655,10.0994556 C38.2185807,9.92742851 38.843659,10.1711239 39.0494169,10.6437645 L51.3438195,38.8848838 C51.5495774,39.3575244 51.2580987,39.8801308 50.6927834,40.0521579 Z M30.2595671,10.0178571 C30.861163,10.0178571 31.3488528,10.4255978 31.3488528,10.9285714 L31.3488528,14.5714286 C31.3488528,15.0744022 30.861163,15.4821429 30.2595671,15.4821429 C29.6579712,15.4821429 29.1702814,15.0744022 29.1702814,14.5714286 L29.1702814,10.9285714 C29.1702814,10.4255978 29.6579712,10.0178571 30.2595671,10.0178571 Z M30.1552596,19.1357325 C30.7568555,19.1357325 31.2445453,19.5434732 31.2445453,20.0464468 L31.2445453,25.5107325 C31.2445453,26.0137062 30.7568555,26.4214468 30.1552596,26.4214468 C29.5536637,26.4214468 29.0659739,26.0137062 29.0659739,25.5107325 L29.0659739,20.0464468 C29.0659739,19.5434732 29.5536637,19.1357325 30.1552596,19.1357325 Z M30.1240009,30.0596958 C30.7255968,30.0596958 31.2132866,30.4674365 31.2132866,30.9704101 L31.2132866,39.1668386 C31.2132866,39.6698123 30.7255968,40.0775529 30.1240009,40.0775529 C29.522405,40.0775529 29.0347152,39.6698123 29.0347152,39.1668386 L29.0347152,30.9704101 C29.0347152,30.4674365 29.522405,30.0596958 30.1240009,30.0596958 Z" id="Rectangle-5"></path>
                        </g>
                    </g>
                </g>
            </g>
        </g>
    </g>
</svg>