<?xml version="1.0" encoding="UTF-8"?>
<svg width="30px" height="30px" viewBox="0 0 30 30" version="1.1" xmlns="http://www.w3.org/2000/svg" xmlns:xlink="http://www.w3.org/1999/xlink">
    <!-- Generator: Sketch 52.6 (67491) - http://www.bohemiancoding.com/sketch -->
    <title>ahorroclick-nuevo-negocio</title>
    <desc>Created with Sketch.</desc>
    <g id="Page-1" stroke="none" stroke-width="1" fill="none" fill-rule="evenodd">
        <g id="ahorroclick-nuevo-negocio">
            <path d="M14.9977086,3 C8.37559672,3 3,8.37915235 3,14.9908362 C3,21.6116838 8.38017949,27 14.9977086,27 C21.610655,27 27,21.6116838 27,14.9908362 C26.9954172,8.37915235 21.610655,3 14.9977086,3" id="Path"></path>
            <path d="M15.0023368,30 C6.73002025,30 0,23.2642568 0,14.9906513 C0,6.72639452 6.73002025,0 15.0023368,0 C23.2746534,0 30,6.72639452 30,14.9906513 C30,23.2642568 23.2746534,30 15.0023368,30 M15.0023368,2.75786849 C8.24894843,2.75786849 2.7667861,8.24555936 2.7667861,14.9906513 C2.7667861,21.7450919 8.25362206,27.2421315 15.0023368,27.2421315 C21.7463779,27.2421315 27.2425611,21.7450919 27.2425611,14.9906513 C27.2378875,8.24555936 21.7463779,2.75786849 15.0023368,2.75786849" id="Shape" fill="#56274F" fill-rule="nonzero"></path>
            <path d="M18.9952769,24 C18.9763847,24 16.9690854,23.9954396 16.7329326,23.9817583 C11.8303993,23.6853306 8,19.736002 8,14.9931594 C8,10.2047124 11.8776299,6.25994426 16.8321168,6.00912085 C17.0304852,6 18.9811078,6 19,6 L19,8.69065113 C18.8677544,8.69065113 17.1674538,8.69521155 16.9596393,8.69977198 C13.5118076,8.87762858 10.7913267,11.6366861 10.7913267,14.9931594 C10.7913267,18.3131492 13.4787462,21.085888 16.9029626,21.2956676 C17.1202233,21.3047884 18.8394161,21.3047884 19,21.3047884 L19,24 L18.9952769,24 Z" id="Path" fill="#56274F"></path>
            <polygon id="Path" fill="#AA004F" points="5 11 16 11 16 14 5 14"></polygon>
            <polygon id="Path" fill="#78B800" points="5 16 16 16 16 19 5 19"></polygon>
        </g>
    </g>
</svg>