<?xml version="1.0" encoding="UTF-8"?>
<svg width="30px" height="27px" viewBox="0 0 30 27" version="1.1" xmlns="http://www.w3.org/2000/svg" xmlns:xlink="http://www.w3.org/1999/xlink">
    <!-- Generator: Sketch 52.6 (67491) - http://www.bohemiancoding.com/sketch -->
    <title>ico-titulares</title>
    <desc>Created with Sketch.</desc>
    <g id="Page-1" stroke="none" stroke-width="1" fill="none" fill-rule="evenodd">
        <g id="ico-titulares" fill-rule="nonzero">
            <path d="M0.0661006118,26.9322606 C0.0289028009,26.8949886 -0.000794633905,24.6214012 1.62175576e-05,21.8797311 C0.00113113832,18.099322 0.0321462068,16.8334983 0.128130749,16.6410452 C0.398144286,16.0996375 0.745898207,16.0319996 3.2612608,16.0317965 C4.6131529,16.0317965 5.58587059,15.9916809 5.62104127,15.9346051 C5.65388076,15.8812869 5.34058802,15.6800998 4.92472258,15.4876467 C3.97987791,15.0501332 3.33231166,14.4172213 2.90489158,13.5130471 C2.61014708,12.8897833 2.58308491,12.7471953 2.58308491,11.8170221 C2.58308491,10.8867473 2.61014708,10.7441594 2.90489158,10.1208956 C3.31457429,9.25429794 3.97926977,8.5884812 4.84333336,8.17930248 C5.4592764,7.88762681 5.61191919,7.85787021 6.48530757,7.86020605 C7.72003164,7.8632528 8.38361221,8.11034434 9.20520745,8.87253999 C9.87193007,9.49103053 10.2968162,10.2657179 10.4643584,11.1678609 L10.5758505,11.7682741 L14.9831323,11.7418689 L19.3905154,11.7154637 L19.5194408,11.0819426 C19.787934,9.76310543 20.5844942,8.72406164 21.7776621,8.13674952 C22.295188,7.88193955 22.4500607,7.85624528 23.4625101,7.85624528 C24.4600601,7.85624528 24.6385488,7.88488474 25.1569869,8.12842173 C26.8025086,8.90117945 27.7786724,10.7439563 27.465177,12.4857841 C27.2244554,13.8236126 26.3296809,14.9654335 25.0752936,15.5352775 C24.7132485,15.6998021 24.4444512,15.878748 24.4778988,15.9329802 C24.5143871,15.9921887 25.4706851,16.0316949 26.8689984,16.0316949 C29.4084839,16.0316949 29.7079921,16.0879582 29.9030019,16.6017421 C29.9600656,16.7520485 30,18.9453033 30,21.9286823 L30,27 L28.0742278,27 L28.0742278,22.7278452 C28.0742278,19.9771364 28.0369286,18.3857166 27.9693239,18.2592764 C27.8707041,18.0746433 27.7366095,18.0628625 25.7404959,18.0628625 L23.6166732,18.0628625 L23.5903205,22.5060417 L23.5639679,26.9492208 L21.7395521,26.9492208 L21.6888739,20.3479261 L21.6381956,13.7466313 L7.85372077,13.7466313 L7.82757082,20.3733157 L7.80152221,27 L5.97852541,27 L5.97852541,22.798022 C5.97852541,20.4868579 5.95004425,18.4531514 5.91517764,18.2786741 L5.85182987,17.9613041 L4.0096767,17.9613041 C2.71201029,17.9613041 2.131542,17.9972558 2.04589581,18.0831742 C1.95508045,18.1741705 1.9242681,19.3176163 1.9242681,22.6025221 L1.9242681,27 L1.02898672,27 C0.536597173,27 0.103298423,26.9695325 0.0661006118,26.9322606 Z M24.487325,13.6140977 C25.0596847,13.303329 25.54204,12.4682145 25.5380871,11.7948824 C25.5322084,10.7729004 24.521178,9.73507531 23.5316352,9.73507531 C22.5686477,9.73507531 21.6012005,10.546019 21.4712616,11.4620756 C21.436395,11.7084562 21.4564636,11.7170887 22.1955547,11.776805 C22.61365,11.8106239 23.0372185,11.8732855 23.1368519,11.9160415 C23.4296706,12.0419739 23.6145447,12.5257981 23.6145447,13.1660221 C23.6145447,13.494665 23.6408974,13.7897937 23.672926,13.8218861 C23.7388077,13.8880006 24.1991686,13.7705991 24.487325,13.6140977 Z M5.96849112,12.8248875 C5.97659964,12.4099199 6.0295077,12.26134 6.23982229,12.0631996 C6.47567871,11.8409899 6.60430003,11.8135691 7.55745592,11.7822891 C8.77373312,11.7424783 8.780524,11.7349629 8.35715818,10.8834975 C8.19660959,10.5610496 7.9432185,10.2583041 7.68161755,10.0766161 C7.31480862,9.82190773 7.17159198,9.7858545 6.52807999,9.7858545 C5.87311472,9.7858545 5.74560833,9.81936877 5.35467657,10.0946935 C4.7439027,10.5248948 4.46192911,11.0607169 4.45990198,11.7955933 C4.45736807,12.6635112 4.90992454,13.4283474 5.57320104,13.6770639 C5.87716898,13.7911139 5.95267952,13.6282143 5.96849112,12.8248875 Z M10.3369534,23.3399375 L10.3369534,19.6797735 L11.2238222,19.7092254 L12.110691,19.7385758 L12.1372463,23.3692879 L12.1639031,27 L10.336852,27 L10.3369534,23.3399375 Z M17.3781848,26.8764035 C17.3504131,26.8039923 17.3397707,25.1683946 17.3544674,23.241629 L17.3811241,19.7385758 L19.2055399,19.7385758 L19.2055399,26.9492208 L18.3170494,26.9785712 C17.6612733,27.0002031 17.4152812,26.9734933 17.3780834,26.8764035 L17.3781848,26.8764035 Z M14.0248072,10.5495735 C11.3885264,10.1524803 9.48474849,7.95607716 9.48941089,5.31728576 C9.4919448,3.91110843 9.97571905,2.68540033 10.9198542,1.69368275 C11.9111201,0.652303113 12.9708016,0.136284981 14.3596888,0.0184772598 C17.5600182,-0.252988291 20.3039396,2.50584512 20.0326084,5.72199591 C19.846518,7.92764082 18.3143128,9.79469008 16.2111668,10.3784477 C15.4793734,10.5815644 14.6619337,10.6455462 14.0249085,10.5495735 L14.0248072,10.5495735 Z M16.2503917,8.35906082 C16.992929,7.99385688 17.6560028,7.26771446 17.9428415,6.50562037 C18.2445796,5.70432475 18.1883267,4.52360702 17.8139161,3.79391006 C17.4819738,3.14718629 16.9115398,2.57561572 16.2662033,2.24311358 C15.537856,1.86775381 14.3594861,1.81149047 13.5597839,2.11372821 C11.9411216,2.72551589 11.0126967,4.55833999 11.4892747,6.20114835 C12.0864668,8.25973672 14.3586753,9.2895387 16.2503917,8.35906082 Z" id="Shape" fill="#75B503"></path>
            <path d="M6.06768463,22.5060417 C5.94735793,12.9187274 5.95783865,12.5273214 6.34622985,12.097831 C6.45909912,11.9729142 6.71426428,11.8388572 6.91319636,11.7998587 C7.11222922,11.7607588 10.0145818,11.7257211 13.3629695,11.7221666 L19.4509563,11.7154637 L19.579345,11.0819426 C19.8466033,9.76280075 20.6385022,8.72406164 21.8246372,8.13674952 C22.3393009,7.8820411 22.4932868,7.85624528 23.4999396,7.85624528 C24.4917783,7.85624528 24.669245,7.88488474 25.184715,8.12842173 C26.8208154,8.90117945 27.7913903,10.7439563 27.4796898,12.4857841 C27.2403465,13.8236126 26.3506948,14.9654335 25.1034894,15.5352775 C24.7435171,15.6998021 24.4762588,15.878748 24.5095149,15.9329802 C24.5457943,15.9921887 25.4966171,16.0316949 26.8868238,16.0316949 C29.4118705,16.0316949 29.7097647,16.0879582 29.9035572,16.6017421 C29.9602942,16.7520485 30,18.9453033 30,21.9286823 L30,27 L28.0852535,27 L28.0852535,22.7278452 C28.0852535,19.9771364 28.0481679,18.3857166 27.9809502,18.2592764 C27.8828951,18.0746433 27.7495682,18.0628625 25.7648831,18.0628625 L23.6532201,18.0628625 L23.6270183,22.5060417 L23.6008165,26.9492208 L21.7868462,26.9492208 L21.7364581,20.3479261 L21.68607,13.7466313 L7.98051636,13.7466313 L7.95451611,20.3733157 L7.92861665,27 L6.12411926,27 L6.06768463,22.5060417 Z M24.5187863,13.6140977 C25.0879699,13.303329 25.5675635,12.4682145 25.5636332,11.7948824 C25.5577882,10.7729004 24.5525463,9.73507531 23.5686689,9.73507531 C22.6111949,9.73507531 21.6492868,10.546019 21.5200918,11.4620756 C21.4854248,11.7084562 21.5053784,11.7170887 22.240238,11.776805 C22.6559395,11.8106239 23.077083,11.8732855 23.1761459,11.9160415 C23.4672881,12.0419739 23.6511038,12.5257981 23.6511038,13.1660221 C23.6511038,13.494665 23.6773056,13.7897937 23.7091509,13.8218861 C23.7746553,13.8880006 24.2323805,13.7705991 24.5188871,13.6140977 L24.5187863,13.6140977 Z M10.4494308,23.3399375 L10.4494308,19.6797735 L11.3312219,19.7092254 L12.213013,19.7385758 L12.2395172,23.3692879 L12.2660213,27 L10.4494308,27 L10.4494308,23.3399375 Z M17.4503485,26.8764035 C17.4228366,26.8039923 17.4122551,25.1683946 17.4268677,23.241629 L17.4533718,19.7385758 L19.2673421,19.7385758 L19.2673421,26.9492208 L18.3839386,26.9785712 C17.731917,27.0002031 17.4873334,26.9734933 17.4504493,26.8764035 L17.4503485,26.8764035 Z M14.1164726,10.5495735 C11.4952854,10.1524803 9.60240739,7.95607716 9.60704309,5.31728576 C9.6095625,3.91110843 10.090567,2.68550189 11.0292966,1.69368275 C12.0149879,0.652303113 13.0685016,0.136284981 14.4494369,0.0184772598 C17.6314432,-0.252988291 20.3596546,2.50584512 20.0898769,5.72199591 C19.9048519,7.92764082 18.3814192,9.79469008 16.2903145,10.3784477 C15.5627108,10.5815644 14.7499513,10.6455462 14.1165734,10.5495735 L14.1164726,10.5495735 Z M16.3293149,8.35906082 C17.0676008,7.99385688 17.7268782,7.26771446 18.0120747,6.50562037 C18.3120852,5.70432475 18.2561545,4.52360702 17.8838874,3.79391006 C17.5538456,3.14718629 16.9866775,2.57561572 16.3450359,2.24311358 C15.6208587,1.86775381 14.4492354,1.81149047 13.6541117,2.11372821 C12.0447169,2.72551589 11.1216076,4.55833999 11.5954569,6.20114835 C12.1892299,8.25973672 14.4484292,9.2895387 16.3293149,8.35906082 Z" id="Shape" fill="#AA0650"></path>
            <path d="M6.07152225,22.5060417 C5.97805569,15.172511 5.97692958,13.7830908 6.06384428,13.0357227 C6.15096372,12.2869327 6.30564935,12.0130298 6.73489941,11.847185 C6.89245149,11.7862499 10.0417526,11.7456266 14.9257646,11.7412596 C23.49541,11.7337442 23.4984812,11.7339474 23.7735575,12.2615431 C24.0000066,12.6959083 24.044846,14.8370637 23.9600811,21.1603931 L23.88238,26.9492208 L22.0396657,26.9492208 L21.9884791,20.3479261 L21.9372926,13.7466313 L8.01456214,13.7466313 L7.98825228,20.3733157 L7.96194241,27 L6.12885114,27 L6.07152225,22.5060417 Z M10.5227011,23.339836 L10.5227011,19.6798751 L11.418465,19.7092254 L12.3142289,19.7385758 L12.341153,23.3692879 L12.3680771,27 L10.5227011,27 L10.5227011,23.339836 Z M17.6345547,26.8764035 C17.6066068,26.8039923 17.5958577,25.1683946 17.6107018,23.241629 L17.6376259,19.7385758 L19.4803402,19.7385758 L19.4803402,26.9492208 L18.5829383,26.9785712 C17.9205849,27.0002031 17.6721256,26.9734933 17.6345547,26.8764035 Z M14.2477481,10.5495735 C11.5850259,10.1524803 9.6621535,7.95607716 9.66686266,5.31728576 C9.66942198,3.91110843 10.1580484,2.68540033 11.1116531,1.69368275 C12.1128612,0.652303113 13.1831711,0.136284981 14.5859886,0.0184772598 C17.8184166,-0.252988291 20.589859,2.50584512 20.3158064,5.72199591 C20.1278495,7.92764082 18.5802766,9.79469008 16.4560365,10.3784477 C15.7169033,10.5815644 14.8912649,10.6455462 14.2478505,10.5495735 L14.2477481,10.5495735 Z M16.4956548,8.35906082 C17.2456396,7.99385688 17.9153639,7.26771446 18.2050795,6.50562037 C18.509844,5.70432475 18.453027,4.52360702 18.074861,3.79391006 C17.7395894,3.14718629 17.163434,2.57561572 16.511625,2.24311358 C15.7759725,1.86775381 14.5857838,1.81149047 13.7780607,2.11372821 C12.1431636,2.72551589 11.2054267,4.55833999 11.6867847,6.20114835 C12.2899665,8.25973672 14.5849648,9.2895387 16.4956548,8.35906082 Z" id="Shape" fill="#56264F"></path>
        </g>
    </g>
</svg>