<?xml version="1.0" encoding="UTF-8"?>
<svg width="48px" height="46px" viewBox="0 0 48 46" version="1.1" xmlns="http://www.w3.org/2000/svg" xmlns:xlink="http://www.w3.org/1999/xlink">
    <!-- Generator: Sketch 52.6 (67491) - http://www.bohemiancoding.com/sketch -->
    <title>iconos</title>
    <desc>Created with Sketch.</desc>
    <g id="Info-Faqs" stroke="none" stroke-width="1" fill="none" fill-rule="evenodd">
        <g id="Info-Faqs.MODAL.desktop" transform="translate(-381.000000, -1220.000000)">
            <g id="info" transform="translate(318.000000, 226.000000)">
                <g id="Group-10" transform="translate(40.165789, 985.423351)">
                    <g id="ico" transform="translate(11.094737, 0.806845)">
                        <g id="iconos" transform="translate(12.094737, 8.068344)">
                            <path d="M13.1217816,12.483254 L5.8035941,1.77435415 L7.71123919,0.976215062 C13.6223784,-1.50659962 20.4476509,1.29521447 22.9275895,7.21015534 L19.8190242,8.51433766 C18.3441201,4.98868957 14.6888672,3.03113496 11.0771445,3.51924249 L15.9025904,10.584631 L13.1217816,12.483254 Z" id="Shape" fill="#AA004F" fill-rule="nonzero"></path>
                            <path d="M45.0383484,34.4480929 C48.5386851,37.7469824 46.3724196,41.0176872 44.3777142,43.1174464 C43.1947182,44.3614159 41.5469738,45.0737198 39.8556991,45.0737198 C38.6112488,45.0737198 37.5037904,44.6727286 36.7356112,43.9412079 L20.4963022,26.5653485 C18.7858231,24.8678616 16.9818822,23.8660241 16.963958,23.8557752 C16.6963756,23.696916 16.0472642,23.403539 14.5032239,23.403539 C12.9937517,23.403539 11.5687792,23.6828237 11.5559762,23.6879482 C7.19271821,24.4719949 3.75639644,21.2538161 3.62836657,21.1295473 C-0.998633001,16.7263305 -1.18683691,9.35219154 3.22635277,4.70299933 L4.64876465,3.20408644 L11.1245156,12.5127198 L23.7559427,4.33787953 L24.7161668,5.23722726 C25.0938549,5.58953585 28.3445334,8.92685899 26.4087217,17.1644743 C26.4176838,17.2567151 26.4752972,17.7973486 27.1474541,18.409725 L45.0383484,34.4480929 Z M14.5045042,20.0341878 C16.2841194,20.0341878 17.6386755,20.3275648 18.6424297,20.9335356 C18.6705962,20.9476279 20.8048542,22.123698 22.869976,24.1734934 L38.7354378,41.1765463 C38.7828088,41.2213856 39.3947916,41.7018064 39.8556991,41.7018064 C40.6174769,41.7018064 41.3946182,41.362309 41.9361846,40.7922097 C42.8861662,39.7916533 43.9372915,38.0096124 42.2959485,36.5081373 L24.8877268,20.9027886 C22.7777945,18.9926356 23.0440967,16.8608483 23.079945,16.6238407 L23.1068313,16.4918852 C24.0568129,12.5293744 23.5587767,10.0939612 23.0376952,8.811558 L10.2193444,17.1068238 L4.40806849,8.75262638 C2.66046074,11.9567128 3.2007468,16.0678337 5.96619203,18.6992586 C5.99307831,18.7261621 7.81878428,20.4441469 10.1220417,20.4441469 C10.3921847,20.4441469 10.6648883,20.4210867 10.9299102,20.371123 C10.9670388,20.3659985 12.6506317,20.0341878 14.5045042,20.0341878 Z" id="Shape" fill="#56274F" fill-rule="nonzero"></path>
                            <path d="M41.7441398,38.0108935 C41.7441398,39.1831203 40.7915975,40.1324318 39.6201242,40.1324318 C38.4512115,40.1324318 37.5012298,39.1831203 37.5012298,38.0108935 C37.5012298,36.8348234 38.4512115,35.8867931 39.6201242,35.8867931 C40.7915975,35.8867931 41.7441398,36.8348234 41.7441398,38.0108935" id="Shape" fill="#78B800"></path>
                        </g>
                    </g>
                </g>
            </g>
        </g>
    </g>
</svg>