<?xml version="1.0" encoding="UTF-8"?>
<svg width="30px" height="40px" viewBox="0 0 30 40" version="1.1" xmlns="http://www.w3.org/2000/svg" xmlns:xlink="http://www.w3.org/1999/xlink">
    <!-- Generator: Sketch 52.6 (67491) - http://www.bohemiancoding.com/sketch -->
    <title>compyte</title>
    <desc>Created with Sketch.</desc>
    <g id="Page-1" stroke="none" stroke-width="1" fill="none" fill-rule="evenodd">
        <g id="compyte">
            <g id="Group" transform="translate(0.000000, 3.000000)" fill="#51284F">
                <g id="n4n5a-link">
                    <polygon id="n4n5a" points="30 0 22.4510526 0 22.4510526 1.87252174 28.44 1.87252174 28.44 35.0373913 1.81889708 35.0373913 1.81889708 1.87252174 7.54736842 1.87252174 7.54736842 0 0 0 0 37 30 37 30 25.6458261"></polygon>
                </g>
            </g>
            <g id="Group" transform="translate(9.000000, 0.000000)" fill="#51284F">
                <g id="n4n5b-link">
                    <path d="M9.98705882,0 L2.92117647,0 L4.49188235,4.15215686 C2.40729412,4.31215686 0.668352941,5.86980392 0,8 L13,8 C12.3224706,5.84 10.5452941,4.26980392 8.42094118,4.14588235 L9.98705882,0 Z" id="n4n5b"></path>
                </g>
            </g>
            <g id="Group" transform="translate(12.000000, 13.000000)" fill="#AC0A5E">
                <g id="n4n5c-link">
                    <polygon id="n4n5c" points="0 2 13 2 13 0 0 0"></polygon>
                </g>
            </g>
            <g id="Group" transform="translate(12.000000, 20.000000)" fill="#AC0A5E">
                <g id="n4n5d-link">
                    <polygon id="n4n5d" points="0 2 13 2 13 0 0 0"></polygon>
                </g>
            </g>
            <g id="Group" transform="translate(12.000000, 27.000000)" fill="#AC0A5E">
                <g id="n4n5e-link">
                    <polygon id="n4n5e" points="0 2 13 2 13 0 0 0"></polygon>
                </g>
            </g>
            <g id="Group" transform="translate(12.000000, 34.000000)" fill="#AC0A5E">
                <g id="n4n5f-link">
                    <polygon id="n4n5f" points="0 2 13 2 13 0 0 0"></polygon>
                </g>
            </g>
            <g id="Group" transform="translate(5.000000, 11.000000)">
                <g id="n4n5g-link" transform="translate(0.000000, 0.153199)" fill="#41223E">
                    <polygon id="n4n5g" points="4.16015625 4.14249158 0.82421875 4.14249158 0.82421875 0.75986532 3.12586207 0.75986532 3.82284483 0 0 0 0 4.9023569 5 4.9023569 5 1.84680135 4.16015625 2.45117845"></polygon>
                </g>
                <g id="n4n5h-link" transform="translate(0.985632, 0.000000)" fill="#6CB644">
                    <polygon id="n4n5h" points="0.485775862 1.97166667 0 2.51858586 1.16586207 3.82996633 4.08333333 0.546919192 3.59755747 0 1.16586207 2.73612795"></polygon>
                </g>
            </g>
            <g id="Group" transform="translate(5.000000, 18.000000)">
                <g id="n4n5i-link" fill="#41223E">
                    <polygon id="n4n5i" points="4.18762207 4.14249158 0.803955078 4.14249158 0.803955078 0.75986532 3.12586207 0.75986532 3.82284483 0 0 0 0 4.9023569 5 4.9023569 5 1.85180664 4.18762207 2.45117845"></polygon>
                </g>
                <g id="n4n5j-link" transform="translate(1.000000, 0.000000)" fill="#6CB644">
                    <polygon id="n4n5j" points="0.485775862 1.97166667 0 2.51858586 1.16586207 3.82996633 4.08333333 0.546919192 3.59755747 0 1.16586207 2.73612795"></polygon>
                </g>
            </g>
            <g id="Group" transform="translate(5.000000, 25.000000)" fill="#41223E">
                <g id="n4n5k-link">
                    <polygon id="n4n5k" points="4.225 4.225 0.775 4.225 0.775 0.775 4.225 0.775 5 0 0 0 0 5 5 5 5 0 4.225 0.775"></polygon>
                </g>
            </g>
            <g id="Group" transform="translate(5.000000, 32.000000)" fill="#41223E">
                <g id="n4n5l-link">
                    <polygon id="n4n5l" points="4.225 4.225 0.775 4.225 0.775 0.775 4.225 0.775 5 0 0 0 0 5 5 5 5 0 4.225 0.775"></polygon>
                </g>
            </g>
        </g>
    </g>
</svg>