<?xml version="1.0" encoding="UTF-8"?>
<svg width="22px" height="21px" viewBox="0 0 22 21" version="1.1" xmlns="http://www.w3.org/2000/svg" xmlns:xlink="http://www.w3.org/1999/xlink">
    <!-- Generator: Sketch 52.6 (67491) - http://www.bohemiancoding.com/sketch -->
    <title>icono caution monocolor</title>
    <desc>Created with Sketch.</desc>
    <g id="Page-1" stroke="none" stroke-width="1" fill="none" fill-rule="evenodd">
        <g id="botones-y-banners" transform="translate(-748.000000, -902.000000)">
            <g id="avisos-copy-3" transform="translate(726.000000, 857.000000)">
                <g id="AVISO-Copy" transform="translate(20.000000, 32.000000)">
                    <g id="icono-caution-monocolor" transform="translate(3.000000, 14.000000)">
                        <path d="M9.67462461,0 C4.34068158,0 0,4.17369066 0,9.30745991 C0,14.4395369 4.34068158,18.6149198 9.67462461,18.6149198 C15.0085676,18.6149198 19.3492492,14.4395369 19.3492492,9.30745991 C19.3492492,4.17425475 15.0079813,0 9.67462461,0 L9.67462461,0 Z" id="Shape" stroke="#87BB01" stroke-width="2" fill="#87BB01"></path>
                        <path d="M14.3323415,5.48390768 C14.2008493,5.35151795 13.9867819,5.35151795 13.8561873,5.48390768 L8.83839238,10.4783661 C8.70690021,10.6116533 8.49238398,10.6116533 8.36178938,10.4783661 L6.16322242,8.23940902 C6.09814951,8.17298977 6.01288155,8.14022893 5.92716482,8.13978015 C5.84055052,8.13933137 5.75258989,8.17209221 5.68661942,8.23940902 L4.71501349,9.11273241 C4.65038936,9.17915166 4.61538462,9.26217573 4.61538462,9.34879002 C4.61538462,9.43585309 4.65038936,9.52695517 4.71546227,9.59292564 L6.93242915,11.9193945 C7.06347254,12.052233 7.27843754,12.2676468 7.40903215,12.3995878 L8.36223816,13.360423 C8.49328154,13.4919152 8.70734899,13.4919152 8.83884116,13.360423 L15.2859963,6.92493615 C15.4174884,6.79299521 15.4174884,6.57623508 15.2859963,6.44429414 L14.3323415,5.48390768 L14.3323415,5.48390768 Z" id="Shape-Copy" fill="#FFFFFF"></path>
                    </g>
                </g>
            </g>
        </g>
    </g>
</svg>