<svg xmlns="http://www.w3.org/2000/svg" xmlns:xlink="http://www.w3.org/1999/xlink" width="18" height="18" viewBox="0 0 18 18"><defs><path id="j5qia" d="M983.496 487.088l-3.54-3.523c-.727-.723-.091-1.446.771-2.304l-4.04-4.021c-1.86 1.852-.408 6.415 1.362 8.177l3.54 3.524c1.77 1.761 6.31 3.252 8.17 1.355l-3.994-3.976c-.817.814-1.543 1.491-2.27.768z"/><path id="j5qib" d="M989.76 489.97l.06.06z"/><path id="j5qic" d="M982.7 479.368c.52-.52.52-1.417 0-1.937l-2.22-2.221c-.52-.52-1.418-.52-1.938 0l-1.512 1.512 4.159 4.159z"/><path id="j5qid" d="M989.57 484.3c-.52-.52-1.418-.52-1.938 0l-1.512 1.512 4.159 4.159 1.512-1.513c.52-.52.52-1.417 0-1.937z"/></defs><g><g transform="translate(-975 -474)"><g clip-path="url(#clip-A3781FB2-1CB2-413C-8465-79078FD1629D)"><g><use fill="#56274f" xlink:href="#j5qia"/></g><g><use fill="#eae6de" xlink:href="#j5qib"/></g><g><use fill="#78b800" xlink:href="#j5qic"/></g><g><use fill="#aa004f" xlink:href="#j5qid"/></g></g></g></g></svg>