<?xml version="1.0" encoding="UTF-8"?>
<svg width="44px" height="46px" viewBox="0 0 44 46" version="1.1" xmlns="http://www.w3.org/2000/svg" xmlns:xlink="http://www.w3.org/1999/xlink">
    <!-- Generator: Sketch 52.6 (67491) - http://www.bohemiancoding.com/sketch -->
    <title>alarm</title>
    <desc>Created with Sketch.</desc>
    <g id="Info-Faqs" stroke="none" stroke-width="1" fill="none" fill-rule="evenodd">
        <g id="Info-Faqs.MODAL.desktop" transform="translate(-381.000000, -747.000000)">
            <g id="info" transform="translate(318.000000, 226.000000)">
                <g id="alarm" transform="translate(63.000000, 521.497106)">
                    <g id="Group">
                        <path d="M23.1079937,4.25394001 L23.1079937,1.41801139 C23.1079937,0.635228424 22.4611617,0 21.6640797,0 C20.8669977,0 20.2201657,0.635228424 20.2201657,1.41801139 L20.2201657,4.25403417 C20.2201657,5.03672297 20.8669977,5.67204556 21.6640797,5.67204556 C22.4611617,5.67204556 23.1079937,5.03672297 23.1079937,4.25394001" id="Path" fill="#78B800"></path>
                        <path d="M4.3373033,19.8519711 L1.44957116,19.8519711 C0.652585084,19.8519711 0.00565714369,20.4871996 0.00565714369,21.2699825 C0.00565714369,22.0527655 0.6524892,22.6879939 1.44957116,22.6879939 L4.33739918,22.6879939 C5.13438526,22.6879939 5.7813132,22.0527655 5.7813132,21.2699825 C5.7813132,20.4871996 5.13438526,19.8519711 4.3373033,19.8519711" id="Path" fill="#78B800"></path>
                        <path d="M41.8786841,19.8519711 L38.9908561,19.8519711 C38.19387,19.8519711 37.5469421,20.4871996 37.5469421,21.2699825 C37.5469421,22.0527655 38.1937741,22.6879939 38.9908561,22.6879939 L41.8786841,22.6879939 C42.6756702,22.6879939 43.3225981,22.0527655 43.3225981,21.2699825 C43.3225981,20.4871996 42.6756702,19.8519711 41.8786841,19.8519711" id="Path" fill="#78B800"></path>
                        <path d="M34.93641,6.22921227 L32.8947564,8.23424026 C32.3301926,8.78867622 32.3301926,9.68624475 32.8947564,10.2392683 C33.4578819,10.7937042 34.3732845,10.7937042 34.93641,10.2392683 L36.9780635,8.23424026 C37.5426273,7.6798043 37.5426273,6.78223577 36.9780635,6.22921227 C36.414938,5.67618877 35.5009737,5.67618877 34.93641,6.22921227" id="Path" fill="#78B800"></path>
                        <path d="M8.39031116,10.2407749 C8.95487492,10.7952108 9.86883922,10.7952108 10.4319647,10.2407749 C10.9965285,9.68633891 10.9965285,8.78877038 10.4319647,8.23574688 L8.39174942,6.22921227 C7.82718565,5.67477631 6.91322136,5.67477631 6.35009585,6.22921227 C5.78553209,6.78364822 5.78553209,7.68131092 6.34865759,8.23574688 L8.39031116,10.2407749 Z" id="Path" fill="#78B800"></path>
                        <path d="M21.6640797,9.92598557 C15.2935606,9.92598557 10.1128635,15.0137453 10.1128635,21.2699825 L10.1128635,38.2859309 L33.2152,38.2859309 L33.2152,21.2698884 C33.2152959,15.0137453 28.0345988,9.92598557 21.6640797,9.92598557 Z" id="Shape" fill="#FFFFFF" fill-rule="nonzero"></path>
                    </g>
                    <path d="M36.012715,37.0057541 L34.5783886,37.0057541 L34.5783886,21.6448584 C34.5755312,14.7101207 28.7924118,9.07966855 21.6696416,9.07688657 C14.5468714,9.07966855 8.76375195,14.7101207 8.76089454,21.6448584 L8.76089454,37.0057541 L7.32656815,37.0057541 C4.94996198,37.007145 3.02511292,38.8811804 3.02368421,41.1950471 L3.02368421,43.9879709 C3.02368421,44.3551925 3.17712732,44.7155518 3.44391451,44.9752961 C3.71070169,45.2350404 4.08073676,45.3844328 4.4580106,45.3844328 L38.8814631,45.3844328 C39.2586417,45.3844328 39.628772,45.2350404 39.8955592,44.9752961 C40.1623464,44.7155518 40.3157895,44.3552852 40.3157895,43.9879709 L40.3157895,41.1950471 C40.3142655,38.8811804 38.3894165,37.007145 36.012715,37.0057541 Z M11.6294521,21.6448584 C11.6294521,18.9468928 12.7525109,16.5115463 14.5741121,14.7366422 C16.397142,12.9631291 18.8985219,11.8697177 21.6696416,11.8697177 C24.4407613,11.8697177 26.9421412,12.9631291 28.7651711,14.7366422 C30.5867723,16.5115463 31.7098311,18.9468928 31.7098311,21.6448584 L31.7098311,37.0057541 L11.6294521,37.0057541 L11.6294521,21.6448584 Z M37.4471367,42.5916017 L5.89224175,42.5916017 L5.89224175,41.1951398 C5.89367046,40.4243455 6.53477883,39.7986779 7.32656815,39.7986779 L8.76089454,39.7986779 L10.1952209,39.7986779 L34.5784839,39.7986779 L36.0128103,39.7986779 C36.8045044,39.7986779 37.445708,40.4242528 37.4471367,41.1951398 L37.4471367,42.5916017 Z" id="Shape" fill="#AA004F" fill-rule="nonzero"></path>
                </g>
            </g>
        </g>
    </g>
</svg>