<?xml version="1.0" encoding="utf-8"?>
<!-- Generator: Adobe Illustrator 19.2.1, SVG Export Plug-In . SVG Version: 6.00 Build 0)  -->
<svg version="1.1" id="Capa_1" xmlns="http://www.w3.org/2000/svg" xmlns:xlink="http://www.w3.org/1999/xlink" x="0px" y="0px"
	 viewBox="0 0 20 18" style="enable-background:new 0 0 20 18;" xml:space="preserve">
<style type="text/css">
	.st0{fill:#D88E15;}
</style>
<title>icono caution monocolor</title>
<desc>Created with Sketch.</desc>
<path class="st0" d="M19.8,16.5L10.5,0.3C10.4,0.1,10.2,0,9.9,0C9.7,0,9.4,0.1,9.3,0.3L0.1,16.5c-0.1,0.2-0.1,0.5,0,0.7
	c0.1,0.2,0.3,0.3,0.6,0.3h18.5c0.2,0,0.5-0.1,0.6-0.3C19.9,16.9,19.9,16.7,19.8,16.5z M9.1,6.7c0-0.5,0.4-0.8,0.9-0.8
	c0.5,0,0.9,0.4,0.9,0.8v4.8c0,0.5-0.4,0.8-0.9,0.8c-0.5,0-0.9-0.4-0.9-0.8V6.7z M9.9,15C9.4,15,9,14.6,9,14.1c0-0.5,0.4-0.9,0.9-0.9
	c0.5,0,0.9,0.4,0.9,0.9C10.8,14.6,10.4,15,9.9,15z"/>
</svg>
