<?xml version="1.0" standalone="no"?>
<!DOCTYPE svg PUBLIC "-//W3C//DTD SVG 1.1//EN" "http://www.w3.org/Graphics/SVG/1.1/DTD/svg11.dtd" >
<svg xmlns="http://www.w3.org/2000/svg" xmlns:xlink="http://www.w3.org/1999/xlink" version="1.1">
<metadata></metadata>
<defs>
<font id="newjuneheavyregular" horiz-adv-x="1208" >
<font-face units-per-em="2048" ascent="1597" descent="-451" />
<missing-glyph horiz-adv-x="530" />
<glyph unicode="&#xfb01;" horiz-adv-x="1384" d="M33 877v243h153v74q0 184 105.5 278.5t296.5 94.5q112 0 289 -47l-37 -240q-140 35 -191 35q-78 0 -110.5 -33.5t-32.5 -114.5v-47h770v-1120h-324v877h-446v-877h-320v877h-153zM932 1417q0 75 48.5 119.5t133.5 44.5t133.5 -44.5t48.5 -119.5q0 -77 -48.5 -122.5 t-133.5 -45.5t-133.5 45.5t-48.5 122.5z" />
<glyph unicode="&#xfb02;" horiz-adv-x="1390" d="M33 877v243h153v74q0 185 110 281t310 96q148 0 346 -47l332 61v-1585h-334v1286q-175 33 -276 33q-92 0 -130 -35t-38 -117v-47h315v-243h-315v-877h-320v877h-153z" />
<glyph horiz-adv-x="0" />
<glyph horiz-adv-x="0" />
<glyph horiz-adv-x="682" />
<glyph unicode="&#xd;" horiz-adv-x="530" />
<glyph unicode=" "  horiz-adv-x="530" />
<glyph unicode="&#x09;" horiz-adv-x="530" />
<glyph unicode="&#xa0;" horiz-adv-x="530" />
<glyph unicode="!" horiz-adv-x="520" d="M78 143q0 77 48.5 122.5t133.5 45.5t133.5 -45.5t48.5 -122.5q0 -75 -48 -118t-134 -43t-134 43t-48 118zM98 459v1065h322v-1010z" />
<glyph unicode="&#x22;" horiz-adv-x="890" d="M92 1563h303l-26 -502h-248zM496 1563h303l-27 -502h-246z" />
<glyph unicode="#" horiz-adv-x="1445" d="M49 387l35 244h225l47 241h-231l37 242h239l78 410h264l-77 -410h233l78 410h266l-78 -410h221l-36 -242h-228l-45 -241h230l-37 -244h-238l-71 -387h-267l74 387h-238l-75 -387h-269l76 387h-213zM573 631h240l45 241h-237z" />
<glyph unicode="$" d="M74 84l55 311l119 -41q208 -74 381 -71q77 0 126.5 39.5t49.5 111.5q0 70 -39 104t-127 54l-182 41q-181 41 -282 148.5t-101 281.5q0 204 111 321t292 138v254h262v-252q142 -15 277 -58l125 -39l-54 -309l-122 41q-216 72 -373 72q-83 0 -130.5 -39.5t-47.5 -112.5 q0 -59 34 -94.5t107 -52.5l207 -49q381 -91 381 -430q0 -202 -111.5 -319t-292.5 -140v-258h-262v258q-114 5 -278 53z" />
<glyph unicode="%" horiz-adv-x="1884" d="M68 1159q0 184 106.5 290.5t288.5 106.5q184 0 288.5 -106t104.5 -291q0 -187 -106.5 -294t-288.5 -107q-184 0 -288.5 107t-104.5 294zM221 0l1112 1524h320l-1112 -1524h-320zM340 1159q0 -91 31.5 -140.5t91.5 -49.5q123 0 123 190q0 89 -32 138t-93 49q-59 0 -90 -49 t-31 -138zM1028 369q0 185 106.5 291t288.5 106q186 0 290 -105.5t104 -291.5q0 -187 -106 -293.5t-290 -106.5t-288.5 107t-104.5 293zM1300 369q0 -90 31.5 -139.5t91.5 -49.5q123 0 123 189q0 90 -32 139t-93 49q-58 0 -89.5 -49.5t-31.5 -138.5z" />
<glyph unicode="&#x26;" horiz-adv-x="1533" d="M88 410q0 271 266 397q-71 85 -106 161.5t-35 176.5q0 193 128.5 298t334.5 105t325 -97.5t119 -276.5q0 -65 -19.5 -124t-50.5 -104t-75.5 -85t-89.5 -68t-97 -52l261 -276q40 41 65 131.5t25 189.5v146h284v-150q0 -155 -48.5 -293t-131.5 -229l227 -260h-387l-73 86 q-39 -35 -149 -70.5t-263 -35.5q-245 0 -377.5 120.5t-132.5 309.5zM412 414q0 -83 56 -136t161 -53q68 0 122.5 19t79.5 39l-303 321q-51 -22 -83.5 -70.5t-32.5 -119.5zM508 1145q0 -57 26.5 -106t86.5 -113q108 44 157 98.5t49 138.5q0 65 -39.5 105.5t-113.5 40.5 q-82 0 -124 -44t-42 -120z" />
<glyph unicode="'" horiz-adv-x="518" d="M92 1563h334l-29 -502h-276z" />
<glyph unicode="(" horiz-adv-x="741" d="M80 696q0 149 19 270.5t51 206.5t79 149t97.5 101.5t112 61t117 31.5t118.5 8v-240q-24 -2 -45 -7t-49.5 -21t-51.5 -40.5t-47.5 -69t-40.5 -104t-26.5 -148.5t-10.5 -198q0 -115 10.5 -208t26.5 -154.5t40.5 -107.5t47 -71t52 -40.5t50 -20t44.5 -6.5v-240 q-57 0 -110 8.5t-114 33t-112.5 63.5t-100 105t-82.5 152.5t-54.5 210.5t-20.5 275z" />
<glyph unicode=")" horiz-adv-x="741" d="M70 88q25 2 45.5 6.5t49.5 20t51.5 40.5t46 71t39.5 107.5t26 154.5t10 208q0 109 -10 198t-26 148.5t-39.5 104t-46.5 69t-51.5 40.5t-49 21t-45.5 7v240q64 0 119.5 -8t117.5 -31.5t112 -61t97.5 -101.5t79.5 -149t51 -206.5t19 -270.5q0 -151 -20.5 -275t-54.5 -210.5 t-82.5 -152.5t-100 -105t-113 -63.5t-114.5 -33t-111 -8.5v240z" />
<glyph unicode="*" horiz-adv-x="1128" d="M66 1110l86 272l280 -116l-24 295h313l-25 -297l281 116l86 -272l-311 -74l206 -239l-249 -166l-144 260l-147 -258l-246 166l205 239z" />
<glyph unicode="+" d="M94 477v248h365v397h280v-397h373v-248h-373v-397h-280v397h-365z" />
<glyph unicode="," horiz-adv-x="520" d="M57 -20l78 329h332l-113 -391q-32 -104 -155 -104q-87 0 -123.5 47.5t-18.5 118.5z" />
<glyph unicode="-" horiz-adv-x="886" d="M82 539v252h723v-252h-723z" />
<glyph unicode="." horiz-adv-x="520" d="M78 154q0 79 48.5 125.5t135.5 46.5q84 0 132 -46.5t48 -125.5q0 -80 -48 -127t-132 -47q-87 0 -135.5 47t-48.5 127z" />
<glyph unicode="/" horiz-adv-x="890" d="M14 0l584 1524h279l-574 -1524h-289z" />
<glyph unicode="0" d="M90 483v549q0 243 133 375.5t381 132.5q252 0 383 -131t131 -375v-545q0 -245 -129.5 -377t-378.5 -132q-253 0 -386.5 130.5t-133.5 372.5zM426 477q0 -223 180 -223t180 223v565q0 222 -180 222t-180 -222v-565z" />
<glyph unicode="1" d="M82 0v264h397v981h-47q-51 0 -121 -14t-112 -41l-52 266q70 35 174 51.5t187 16.5h113q99 0 152.5 -51.5t53.5 -143.5v-1065h324v-264h-1069z" />
<glyph unicode="2" d="M76 168q0 34 13 73t40 64l442 410q107 101 153 175t46 167q0 98 -60.5 148t-166.5 50q-140 0 -312 -59l-104 -37l-45 273l104 32q232 74 408 74q236 0 375 -116t139 -353q0 -134 -61 -255.5t-207 -254.5l-330 -301h602v-258h-887q-76 0 -112.5 44.5t-36.5 123.5z" />
<glyph unicode="3" d="M53 92l49 268l109 -34q212 -68 356 -68q116 0 177 45.5t61 126.5q0 79 -60 145l-55 64h-305v250h295l47 59q49 65 49 144q0 165 -221 165q-131 0 -322 -63l-100 -33l-43 273l107 34q224 70 403 70q246 0 379 -102.5t133 -313.5q0 -140 -102 -278l-54 -70l60 -63 q127 -127 127 -293q0 -212 -145.5 -323t-403.5 -111q-191 0 -430 73z" />
<glyph unicode="4" d="M33 406q0 67 49 141l520 862q72 129 227 129q211 0 211 -192v-842h144v-258h-144v-246h-327v246h-523q-77 0 -117 43.5t-40 116.5zM395 504h318v526z" />
<glyph unicode="5" d="M78 86l47 268l108 -32q211 -64 332 -64q123 0 183.5 63t60.5 179q0 117 -63.5 179t-180.5 62t-295 -51l-120 -35v869h937v-283h-659v-272q109 32 227 32q242 0 366 -124.5t124 -372.5q0 -252 -145 -385t-408 -133q-169 -5 -406 67z" />
<glyph unicode="6" d="M82 510v541q0 224 147.5 354.5t391.5 130.5q193 0 391 -68l102 -34l-49 -273l-100 33q-181 61 -322 61q-225 0 -225 -204v-88q116 38 241 38q488 0 488 -489q0 -235 -140 -378.5t-395 -143.5q-250 0 -390 140.5t-140 379.5zM418 510q0 -121 49.5 -185.5t148.5 -64.5 q92 0 141.5 61t49.5 175t-48.5 175.5t-162.5 61.5q-27 0 -56.5 -5t-71.5 -14.5t-50 -11.5v-192z" />
<glyph unicode="7" d="M88 1245v279h889q87 0 130.5 -44t43.5 -122q0 -65 -39 -164l-487 -1194h-371l526 1245h-692z" />
<glyph unicode="8" d="M59 414q0 88 29.5 159t93.5 138l60 61l-52 70q-94 127 -94 280q0 198 137.5 308t370.5 110q234 0 372 -110t138 -308q0 -153 -94 -280l-53 -70l59 -61q65 -69 94 -139.5t29 -157.5q0 -208 -143 -319t-398 -111q-256 0 -402.5 111t-146.5 319zM391 420q0 -79 57 -128.5 t158 -49.5q102 0 158.5 48.5t56.5 129.5t-61 151l-55 64h-199l-55 -64q-60 -66 -60 -151zM414 1098q0 -71 53 -150l41 -61h194l41 61q56 83 56 150q0 78 -50.5 125t-144.5 47q-91 0 -140.5 -47.5t-49.5 -124.5z" />
<glyph unicode="9" d="M61 1014q0 235 140 378.5t395 143.5q250 0 390 -140.5t140 -379.5v-541q0 -224 -147 -354.5t-391 -130.5q-196 0 -391 67l-103 35l49 273l101 -33q184 -62 321 -62q226 0 226 205v88q-119 -39 -242 -39q-488 0 -488 490zM401 1030q0 -114 48.5 -175.5t162.5 -61.5 q27 0 55.5 4.5t75 15t48.5 10.5v193q0 121 -50 185.5t-149 64.5q-92 0 -141.5 -61t-49.5 -175z" />
<glyph unicode=":" horiz-adv-x="520" d="M78 154q0 79 48.5 125.5t135.5 46.5q84 0 132 -46.5t48 -125.5q0 -80 -48 -127t-132 -47q-87 0 -135.5 47t-48.5 127zM78 950q0 79 48.5 125.5t135.5 46.5q84 0 132 -46.5t48 -125.5t-48 -125.5t-132 -46.5q-87 0 -135.5 46.5t-48.5 125.5z" />
<glyph unicode=";" horiz-adv-x="520" d="M57 -20l78 329h332l-113 -391q-32 -104 -155 -104q-87 0 -123.5 47.5t-18.5 118.5zM88 950q0 79 49 125.5t135 46.5q84 0 133.5 -47t49.5 -125t-49.5 -125t-133.5 -47q-86 0 -135 46.5t-49 125.5z" />
<glyph unicode="&#x3c;" d="M88 604q0 164 145 213l887 318v-324l-696 -207l696 -209v-313l-880 309q-152 52 -152 213z" />
<glyph unicode="=" d="M94 305v240h1018v-240h-1018zM94 678v240h1018v-240h-1018z" />
<glyph unicode="&#x3e;" d="M88 82v313l696 209l-696 207v324l887 -318q145 -49 145 -213q0 -161 -151 -213z" />
<glyph unicode="?" horiz-adv-x="960" d="M49 1450l101 29q171 49 325 49q201 0 317.5 -99.5t116.5 -275.5q0 -105 -39 -188t-122 -164l-146 -144l-2 -143l-313 -55v135q0 75 15 118t65 93l135 135q84 84 84 188q0 60 -36.5 94.5t-111.5 34.5q-116 0 -235 -36l-111 -33zM262 143q0 78 47.5 123t134.5 45 q84 0 132.5 -45.5t48.5 -122.5q0 -75 -48 -118t-133 -43q-87 0 -134.5 42.5t-47.5 118.5z" />
<glyph unicode="@" horiz-adv-x="1910" d="M168 715q0 233 108 422.5t298 297t423 107.5q219 0 389 -86.5t264.5 -247t94.5 -370.5q0 -115 -36 -212.5t-95.5 -162t-137 -101t-161.5 -36.5q-49 0 -107.5 18t-85.5 18q-34 0 -111.5 -15t-136.5 -15q-173 0 -259.5 94t-86.5 256q0 120 50 220t152 163t239 63 q61 0 139 -8l8 54h223l-90 -658q44 -22 74 -22q86 0 149.5 91t63.5 251q0 235 -143 371t-396 136q-180 0 -320.5 -83t-216 -226t-75.5 -319q0 -245 136.5 -397t375.5 -152q83 0 230 37t221 37q83 0 141 -35l123 -72l-78 -156l-119 56q-29 14 -80 14q-47 0 -113 -17.5 t-152 -35t-181 -17.5q-168 0 -305 57t-227.5 156.5t-139.5 234t-49 290.5zM764 678q0 -77 33 -121.5t102 -44.5q21 0 127 18l57 412q-77 10 -114 10q-101 0 -153 -79.5t-52 -194.5z" />
<glyph unicode="A" horiz-adv-x="1492" d="M16 0l467 1362q59 178 275 178q102 0 172 -46t98 -130l447 -1364h-398l-78 256h-507l-82 -256h-394zM563 539h367l-180 606z" />
<glyph unicode="B" horiz-adv-x="1441" d="M109 193v1138q0 91 54 142t152 51h533q225 0 345 -100t120 -298q0 -149 -101 -278l-53 -70l62 -63q143 -137 143 -305q0 -196 -130 -303t-378 -107h-541q-97 0 -151.5 51t-54.5 142zM494 274h309q86 0 132 40.5t46 109.5q0 73 -57 133l-68 74h-362v-357zM494 899h354 l51 74q43 59 43 133q0 67 -39 106t-121 39h-288v-352z" />
<glyph unicode="C" horiz-adv-x="1404" d="M78 760q0 189 53.5 337.5t150.5 243.5t228.5 144t290.5 49h15q184 0 411 -72l123 -39l-47 -313l-123 39q-183 59 -330 59q-178 0 -271.5 -111.5t-93.5 -336.5t94.5 -336t270.5 -111q161 0 326 56l127 43l47 -316l-119 -37q-233 -73 -432 -73q-161 0 -292.5 48.5 t-227.5 143t-148.5 243t-52.5 339.5z" />
<glyph unicode="D" horiz-adv-x="1519" d="M109 190v1139q0 91 54 143t152 52h396q337 0 533 -203.5t196 -562.5q0 -357 -199 -557.5t-534 -200.5h-392q-98 0 -152 50t-54 140zM502 297h198q169 0 261 118.5t92 342.5q0 220 -96.5 344.5t-268.5 124.5h-186v-930z" />
<glyph unicode="E" horiz-adv-x="1294" d="M109 193v1138q0 90 55 141.5t151 51.5h895v-289h-708v-322h620v-276h-620v-350h712v-287h-899q-97 0 -151.5 51t-54.5 142z" />
<glyph unicode="F" horiz-adv-x="1253" d="M109 0v1329q0 91 54 143t152 52h875v-293h-686v-348h626v-279h-626v-604h-395z" />
<glyph unicode="G" horiz-adv-x="1529" d="M78 760q0 188 55 335.5t154.5 243t236 145.5t301.5 50q199 0 449 -74l129 -39l-51 -315l-127 35q-234 65 -361 65q-192 0 -295.5 -114.5t-103.5 -341.5q0 -238 104 -358t299 -120q110 0 193 17v262h-289v270h442q96 0 151.5 -52.5t55.5 -139.5v-332q0 -111 -38 -167 t-138 -83q-213 -59 -422 -59q-168 0 -304 49t-234.5 144t-152.5 242.5t-54 336.5z" />
<glyph unicode="H" horiz-adv-x="1486" d="M109 0v1524h393v-609h483v609h393v-1524h-393v629h-483v-629h-393z" />
<glyph unicode="I" horiz-adv-x="616" d="M109 0v1524h399v-1524h-399z" />
<glyph unicode="J" horiz-adv-x="960" d="M33 55l45 293q146 -41 221 -41q87 0 124.5 41t37.5 137v1039h395v-1069q0 -222 -127.5 -339.5t-353.5 -117.5q-153 0 -342 57z" />
<glyph unicode="K" horiz-adv-x="1458" d="M109 0v1524h387v-637l481 637h440l-418 -531l414 -993h-416l-284 678l-109 -127q-60 -71 -85 -127.5t-25 -136.5v-287h-385z" />
<glyph unicode="L" horiz-adv-x="1236" d="M109 190v1334h397v-1209h659v-315h-850q-98 0 -152 50t-54 140z" />
<glyph unicode="M" horiz-adv-x="1873" d="M109 0v1294q0 118 77.5 180t212.5 62q252 0 318 -223l221 -750l229 752q69 221 316 221q120 0 200 -60t80 -180v-1296h-350v1038l-280 -913q-22 -70 -70.5 -102.5t-132.5 -32.5q-85 0 -135 33t-72 102l-277 915v-1040h-337z" />
<glyph unicode="N" horiz-adv-x="1552" d="M109 0v1296q0 118 72.5 180t205.5 62q183 0 262 -147l453 -859v992h340v-1299q0 -116 -72.5 -176.5t-204.5 -60.5q-113 0 -180 52.5t-115 145.5l-421 805v-991h-340z" />
<glyph unicode="O" horiz-adv-x="1658" d="M78 758q0 243 95.5 419.5t265.5 266.5t395 90q343 0 545 -204.5t202 -571.5q0 -184 -55 -331t-155 -244t-239.5 -148t-308.5 -51q-168 0 -305.5 52t-235 149.5t-151 243.5t-53.5 329zM475 758q0 -236 94 -365t265 -129q168 0 259 128.5t91 365.5q0 235 -95 364t-266 129 q-167 0 -257.5 -128.5t-90.5 -364.5z" />
<glyph unicode="P" horiz-adv-x="1361" d="M109 0v1329q0 91 54 143t152 52h465q233 0 371.5 -134.5t138.5 -363.5q0 -231 -143 -364.5t-387 -133.5h-266v-528h-385zM494 813h231q97 0 153 56t56 157q0 213 -238 213h-202v-426z" />
<glyph unicode="Q" horiz-adv-x="1646" d="M78 758q0 182 54.5 329t153.5 245t238 150t307 52q344 0 544 -202t200 -568q0 -217 -89.5 -373.5t-234.5 -232.5q119 -45 244 -45h66v-279h-97q-83 0 -156.5 17t-128 41.5t-105.5 49t-112 41.5t-126 17q-166 0 -303.5 47.5t-239.5 140t-158.5 238.5t-56.5 332zM475 758 q0 -235 94 -361.5t265 -126.5q168 0 259 125.5t91 362.5q0 235 -95 364t-266 129q-167 0 -257.5 -128.5t-90.5 -364.5z" />
<glyph unicode="R" horiz-adv-x="1441" d="M109 0v1331q0 84 56.5 138.5t147.5 54.5h537q231 0 361 -118t130 -333q0 -166 -133 -328l-80 -96l281 -649h-412l-219 541h-276v-541h-393zM502 819h340l55 72q68 90 68 170q0 86 -45.5 135t-137.5 49h-280v-426z" />
<glyph unicode="S" horiz-adv-x="1347" d="M82 104l59 322l138 -49q250 -88 430 -88q83 0 135.5 37.5t52.5 111.5q0 59 -35.5 94t-113.5 52l-256 53q-203 43 -304.5 145t-101.5 283q0 118 42 208.5t117 147t175 85t221 28.5q242 0 492 -78l137 -43l-64 -326l-137 52q-247 88 -424 88q-87 0 -137.5 -37.5 t-50.5 -112.5q0 -58 35.5 -92t115.5 -51l254 -53q204 -43 305 -142.5t101 -281.5q0 -155 -75 -264t-198 -160t-282 -51q-254 0 -494 75z" />
<glyph unicode="T" horiz-adv-x="1363" d="M63 1227v297h1240v-297h-422v-1227h-396v1227h-422z" />
<glyph unicode="U" horiz-adv-x="1499" d="M98 563v961h396v-967q0 -129 64.5 -194.5t189.5 -65.5q127 0 191.5 66t64.5 194v967h395v-961q0 -280 -168 -435t-483 -155t-482.5 154.5t-167.5 435.5z" />
<glyph unicode="V" horiz-adv-x="1462" d="M16 1524h400l313 -1106l322 1106h393l-461 -1370q-55 -166 -264 -166q-208 0 -260 166z" />
<glyph unicode="W" horiz-adv-x="2004" d="M23 1524h378l154 -1100l252 967q15 65 68.5 99t134.5 34q79 0 131 -34t69 -99l244 -969l158 1102h368l-256 -1360q-17 -88 -81.5 -135t-169.5 -47q-220 0 -263 170l-206 800l-218 -800q-42 -168 -260 -168q-214 0 -250 182z" />
<glyph unicode="X" horiz-adv-x="1525" d="M43 0l479 766l-467 758h430l281 -492l272 492h426l-454 -748l471 -776h-430l-287 514l-297 -514h-424z" />
<glyph unicode="Y" horiz-adv-x="1501" d="M12 1524h428l318 -570l305 570h424l-537 -901v-623h-395v618z" />
<glyph unicode="Z" horiz-adv-x="1380" d="M72 180q0 82 59 160l684 893h-702v291h1005q90 0 135 -50t45 -135q0 -82 -61 -159l-676 -893h729v-287h-1040q-88 0 -133 48.5t-45 131.5z" />
<glyph unicode="[" horiz-adv-x="741" d="M143 -133v1657h529v-240h-230v-1182h230v-235h-529z" />
<glyph unicode="\" horiz-adv-x="890" d="M14 1524h279l584 -1524h-291z" />
<glyph unicode="]" horiz-adv-x="741" d="M68 102h231v1182h-231v240h530v-1657h-530v235z" />
<glyph unicode="^" d="M76 88l315 889q45 147 209 147q157 0 209 -145l319 -891h-321l-207 692l-209 -692h-315z" />
<glyph unicode="_" horiz-adv-x="1024" d="M-4 -152h1032v-215h-1032v215z" />
<glyph unicode="`" horiz-adv-x="1110" d="M246 1563h411l148 -136q45 -43 45 -98q0 -39 -29.5 -69.5t-83.5 -30.5q-68 0 -133 51z" />
<glyph unicode="a" horiz-adv-x="1241" d="M74 319q0 84 28 148t74.5 103t116 63.5t143 33.5t164.5 9h176v59q0 146 -176 146q-150 0 -330 -58l-118 -39l-39 250l108 33q235 72 414 72q450 0 450 -389v-498l121 -74l-119 -205l-102 54q-40 21 -96 21q-37 0 -80 -9l-47 -10q-184 -41 -285 -41q-189 0 -296 87.5 t-107 243.5zM391 332q0 -59 39.5 -89t110.5 -30q58 0 164 27l75 18v205h-209q-180 0 -180 -131z" />
<glyph unicode="b" horiz-adv-x="1230" d="M104 225v1305q176 29 324 57v-493q119 39 234 39q253 0 373 -144t120 -424q0 -267 -146 -421t-403 -154q-191 0 -356 51q-77 23 -111.5 66t-34.5 118zM428 264q110 -22 166 -22q123 0 182.5 82.5t59.5 234.5q0 158 -55.5 236.5t-176.5 78.5q-69 0 -176 -32v-578z" />
<glyph unicode="c" horiz-adv-x="1091" d="M76 563q0 278 146 428t392 150q143 0 324 -56l94 -28l-39 -262l-90 26q-160 49 -252 49q-243 0 -243 -307q0 -309 243 -309q97 0 252 51l90 27l39 -262l-94 -29q-178 -55 -324 -55q-247 0 -392.5 147.5t-145.5 429.5z" />
<glyph unicode="d" horiz-adv-x="1230" d="M74 557q0 275 128.5 425.5t377.5 150.5q82 0 221 -39v436q209 35 323 57v-1362q0 -75 -33.5 -118t-109.5 -66q-173 -51 -360 -51q-259 0 -403 149t-144 418zM395 559q0 -317 242 -317q54 0 164 22v578q-105 29 -176 32q-121 0 -175.5 -78t-54.5 -237z" />
<glyph unicode="e" horiz-adv-x="1198" d="M76 561q0 117 28 214t77.5 164.5t117.5 114t147 68t168 21.5q245 0 383 -139t138 -414q0 -66 -31.5 -96.5t-99.5 -30.5h-613q12 -110 84.5 -164.5t192.5 -54.5q144 0 305 49l108 35l39 -240l-108 -35q-210 -65 -369 -65q-264 0 -415.5 146.5t-151.5 426.5zM389 674h430 q0 105 -53.5 171t-161.5 66q-95 0 -151 -63t-64 -174z" />
<glyph unicode="f" horiz-adv-x="858" d="M33 879v241h155v74q0 186 104.5 279.5t297.5 93.5q121 0 289 -49l-39 -238q-128 33 -191 33q-79 0 -111 -32.5t-32 -113.5v-47h317v-241h-317v-879h-318v879h-155z" />
<glyph unicode="g" horiz-adv-x="1249" d="M76 760q0 181 133.5 270.5t368.5 89.5h110q118 0 203 25l272 80l58 -234l-191 -53q3 -2 7.5 -6.5t16.5 -21t21.5 -35.5t17 -50t7.5 -65q0 -171 -130 -257.5t-364 -86.5q-24 0 -45.5 1.5t-30.5 2.5l-10 2q15 -15 15 -57q0 -45 -29 -82h299q196 0 293.5 -76t97.5 -215 q0 -172 -147 -264.5t-435 -92.5q-118 0 -212.5 18t-167.5 56t-112.5 101.5t-39.5 148.5q0 116 78 213l90 115q37 48 37 94q0 32 -14 55.5t-48 48.5q-29 23 -50 43t-46.5 54t-39 79t-13.5 99zM371 -35q0 -66 63 -94.5t189 -28.5q288 0 288 138q0 41 -32.5 64.5t-98.5 23.5 h-374q-35 -39 -35 -103zM379 760q0 -152 207 -152q96 0 152.5 37t56.5 115q0 147 -209 147q-207 0 -207 -147z" />
<glyph unicode="h" horiz-adv-x="1191" d="M104 0v1530q51 8 161.5 28t168.5 29v-495q130 41 238 41q420 0 420 -402v-731h-324v705q0 69 -37 111t-119 42q-64 0 -178 -31v-827h-330z" />
<glyph unicode="i" horiz-adv-x="540" d="M88 1413q0 76 48 120t134 44t134.5 -44t48.5 -120q0 -77 -48.5 -121.5t-134.5 -44.5t-134 44.5t-48 121.5zM111 0v1126h319v-1126h-319z" />
<glyph unicode="j" horiz-adv-x="552" d="M-20 -135q77 1 109 37t32 112v1112h321v-1118q0 -187 -116.5 -283t-345.5 -96v236zM100 1413q0 76 48.5 120t134.5 44t134 -44t48 -120q0 -77 -48 -121.5t-134 -44.5t-134.5 44.5t-48.5 121.5z" />
<glyph unicode="k" horiz-adv-x="1200" d="M104 0v1530l322 57v-897l356 436h387l-317 -378l326 -748h-371l-209 477l-76 -88q-36 -42 -52 -64t-30 -64.5t-14 -96.5v-164h-322z" />
<glyph unicode="l" horiz-adv-x="544" d="M104 0v1528q65 12 188 33.5t146 25.5v-1587h-334z" />
<glyph unicode="m" horiz-adv-x="1789" d="M104 0v897q0 76 37 119t115 67q173 54 346 54q200 0 303 -80q176 80 348 80q222 0 326 -104.5t104 -291.5v-741h-321v713q0 149 -143 149q-81 0 -179 -37q17 -51 17 -98v-727h-322v713q0 71 -33 110t-112 39q-75 0 -162 -28v-834h-324z" />
<glyph unicode="n" horiz-adv-x="1202" d="M104 0v897q0 76 37.5 120t114.5 66q191 54 369 54q242 0 355.5 -107t113.5 -297v-733h-324v707q0 155 -160 155q-77 0 -176 -28v-834h-330z" />
<glyph unicode="o" horiz-adv-x="1267" d="M76 563q0 274 151 426t410 152q261 0 409 -151.5t148 -426.5q0 -274 -151 -424.5t-412 -150.5t-408 150.5t-147 424.5zM406 563q0 -340 231 -340q227 0 227 340q0 166 -59.5 253t-173.5 87q-225 0 -225 -340z" />
<glyph unicode="p" horiz-adv-x="1230" d="M104 -381v1280q0 75 34.5 118t111.5 66q180 54 360 54q257 0 401 -150t144 -420q0 -275 -128.5 -424t-377.5 -149q-97 0 -221 39v-355zM428 283q117 -31 176 -31q121 0 176.5 77t55.5 234q0 316 -242 316q-56 0 -166 -21v-575z" />
<glyph unicode="q" horiz-adv-x="1230" d="M74 561q0 266 146.5 421t402.5 155q183 0 358 -54q76 -23 109.5 -66t33.5 -118v-1225l-323 -57v416q-119 -39 -232 -39q-495 0 -495 567zM395 563q0 -157 54.5 -234t175.5 -77q62 0 176 31v575q-105 21 -164 21q-242 0 -242 -316z" />
<glyph unicode="r" horiz-adv-x="802" d="M104 0v893q0 76 37.5 121t114.5 67q110 29 225 41.5t287 12.5v-263q-221 0 -344 -36v-836h-320z" />
<glyph unicode="s" horiz-adv-x="1128" d="M82 84l45 252l113 -39q208 -68 348 -68q143 0 143 103q0 81 -121 98l-200 33q-324 50 -324 319q0 174 124.5 266.5t324.5 92.5q198 0 399 -64l113 -35l-46 -254l-114 39q-214 70 -348 70q-64 0 -104 -25t-40 -77q0 -42 28.5 -66t92.5 -33l201 -32q163 -27 244 -103.5 t81 -212.5q0 -175 -124 -268.5t-324 -93.5q-204 0 -401 63z" />
<glyph unicode="t" horiz-adv-x="911" d="M27 877v243h151v228l318 57v-285h329v-243h-329v-484q0 -155 143 -155q54 0 186 32l37 -237q-154 -45 -287 -45q-196 0 -296.5 103t-100.5 304v482h-151z" />
<glyph unicode="u" horiz-adv-x="1202" d="M104 391v735h324v-706q0 -158 160 -158q74 0 178 29v835h328v-899q0 -78 -37.5 -121.5t-114.5 -64.5q-178 -51 -367 -51q-242 0 -356.5 106.5t-114.5 294.5z" />
<glyph unicode="v" horiz-adv-x="1185" d="M23 1126h350l215 -776l225 776h346l-344 -1001q-25 -70 -86 -109t-149 -39q-180 0 -230 148z" />
<glyph unicode="w" horiz-adv-x="1693" d="M37 1126h336l116 -766l189 662q30 111 174 111t174 -111l182 -664l121 768h326l-211 -987q-17 -77 -74 -119.5t-147 -42.5q-102 0 -156.5 37.5t-75.5 114.5l-145 498l-154 -502q-46 -145 -229 -145q-91 0 -149.5 42.5t-73.5 116.5z" />
<glyph unicode="x" horiz-adv-x="1220" d="M35 0l364 565l-358 563h377l194 -329l185 329h374l-346 -550l365 -578h-379l-201 344l-204 -344h-371z" />
<glyph unicode="y" horiz-adv-x="1191" d="M29 1126h360l234 -743l204 743h338l-387 -1161q-57 -172 -151.5 -255t-261.5 -83q-119 0 -277 47l39 238q133 -37 197 -37q24 0 42 3t32 12.5t22.5 15.5t16.5 22.5t11 23.5t10 28.5t9 27.5z" />
<glyph unicode="z" horiz-adv-x="1138" d="M74 158q0 81 61 151l508 578h-547v239h811q77 0 117.5 -43.5t40.5 -115.5q0 -81 -57 -144l-510 -585h561v-238h-830q-76 0 -115.5 43t-39.5 115z" />
<glyph unicode="{" horiz-adv-x="737" d="M94 596v192q180 0 180 99q0 38 -26 95.5t-52 126.5t-26 136q0 132 87.5 205.5t250.5 73.5h160v-242h-93q-114 0 -114 -108q0 -55 47 -159.5t47 -162.5q0 -56 -28 -97t-72 -63q100 -55 100 -162q0 -57 -47 -162.5t-47 -160.5q0 -51 29.5 -79t84.5 -28h93v-237h-160 q-163 0 -250.5 73t-87.5 203q0 69 26 138t52 125.5t26 95.5q0 98 -180 98z" />
<glyph unicode="|" horiz-adv-x="575" d="M133 -369v1932h309v-1932h-309z" />
<glyph unicode="}" horiz-adv-x="737" d="M70 100h94q112 0 112 107q0 55 -46 160.5t-46 162.5q0 108 99 162q-44 22 -71.5 63t-27.5 97q0 58 46 162.5t46 159.5q0 50 -29 79t-83 29h-94v242h159q164 0 251 -73.5t87 -205.5q0 -54 -16.5 -109.5t-35.5 -93.5t-35.5 -81t-16.5 -74q0 -99 182 -99v-192 q-182 0 -182 -98q0 -39 26 -96.5t52 -126t26 -136.5q0 -131 -87 -203.5t-251 -72.5h-159v237z" />
<glyph unicode="~" d="M47 547q58 155 155.5 227t215.5 72q109 0 209 -68l82 -57q47 -37 100 -37q46 0 83 35.5t73 118.5l192 -125q-58 -154 -155 -226.5t-214 -72.5q-112 0 -210 67l-82 58q-49 39 -99 39q-47 0 -84 -35t-73 -119z" />
<glyph unicode="&#xa1;" horiz-adv-x="520" d="M78 995q0 76 48.5 121t133.5 45t133.5 -45t48.5 -121q0 -77 -48.5 -122.5t-133.5 -45.5t-133.5 45.5t-48.5 122.5zM100 -381v1006l322 57v-1063h-322z" />
<glyph unicode="&#xa2;" d="M109 563q0 233 105 376.5t290 184.5v269h264v-267q96 -9 203 -43l96 -26l-37 -262l-92 26q-163 49 -252 49q-246 0 -246 -307t248 -307q98 0 250 49l92 27l37 -262l-96 -29q-130 -36 -203 -45v-266h-264v272q-185 38 -290 180.5t-105 380.5z" />
<glyph unicode="&#xa3;" d="M51 121q0 57 28.5 92t90.5 35q102 0 149.5 52t47.5 134q0 51 -17 101h-254v204h146q-65 110 -95 187t-30 168q0 213 136.5 328.5t367.5 115.5q27 0 54 -1.5t57.5 -6t52.5 -7.5t57 -11l52.5 -12t57.5 -15.5t53 -15t58.5 -17t56.5 -16.5l-43 -273q-24 7 -82.5 25t-88 26.5 t-76 20t-86 16t-78.5 4.5q-215 0 -215 -186q0 -49 15 -103t32.5 -94.5t60.5 -130.5h307v-206h-237q14 -61 14 -101q0 -104 -51 -182h180q24 0 47.5 7t47.5 22.5t38.5 47t14.5 74.5h243q0 -403 -387 -403h-606q-119 0 -119 121z" />
<glyph unicode="&#xa5;" d="M23 1524h374l213 -588l203 588h371l-301 -619h254v-205h-342v-118h342v-207h-342v-375h-381v375h-342v207h342v118h-342v205h250z" />
<glyph unicode="&#xa6;" horiz-adv-x="575" d="M133 -369v770h309v-770h-309zM133 795v768h309v-768h-309z" />
<glyph unicode="&#xa7;" d="M76 635v416q0 224 147 354.5t393 130.5q172 0 392 -70l100 -32l-49 -273l-98 31q-199 63 -322 63q-231 0 -231 -204v-88q116 38 243 38q245 0 362 -121.5t117 -363.5v-416q0 -224 -146 -353.5t-392 -129.5q-187 0 -385 66l-109 36l49 273l101 -33q181 -61 321 -61 q232 0 232 200v88q-123 -39 -244 -39q-481 0 -481 488zM408 633q0 -113 49.5 -171.5t165.5 -58.5q65 0 178 31v84q0 113 -49 171.5t-164 58.5q-27 0 -56.5 -4t-45.5 -7.5t-45 -11t-33 -8.5v-84z" />
<glyph unicode="&#xa8;" horiz-adv-x="1171" d="M184 1413q0 75 45.5 119.5t124.5 44.5t124.5 -44.5t45.5 -119.5q0 -74 -45.5 -119t-124.5 -45t-124.5 45t-45.5 119zM651 1413q0 75 45.5 119.5t124.5 44.5t124.5 -44.5t45.5 -119.5q0 -74 -45.5 -119t-124.5 -45t-124.5 45t-45.5 119z" />
<glyph unicode="&#xa9;" horiz-adv-x="1910" d="M152 752q0 172 63.5 322t171.5 253.5t255.5 163t311.5 59.5q163 0 309.5 -58.5t255 -161.5t172.5 -253.5t64 -324.5q0 -171 -64 -321t-172 -255.5t-255.5 -166t-309.5 -60.5q-164 0 -311.5 60.5t-255.5 166t-171.5 255.5t-63.5 321zM369 752q0 -132 44.5 -244.5 t122.5 -191t186 -122.5t232 -44q163 0 295.5 75.5t209.5 213.5t77 313q0 136 -45 249t-123 189.5t-184.5 119t-229.5 42.5q-124 0 -232 -43t-186 -120t-122.5 -190t-44.5 -247zM555 750q0 206 110.5 316t295.5 110q121 0 239 -39l72 -23l-29 -194l-67 20q-122 35 -187 35 q-186 0 -186 -225q0 -224 186 -224q84 0 187 35l67 23l29 -195l-72 -22q-118 -39 -239 -39q-186 0 -296 108t-110 314z" />
<glyph unicode="&#xaa;" d="M180 907q0 277 379 277h156v37q0 60 -32 84t-95 24q-116 0 -258 -43l-90 -26l-35 194l88 29q171 55 323 55q160 0 252.5 -73.5t92.5 -233.5v-379l90 -55l-93 -166l-79 43q-53 29 -134 10l-40 -10q-120 -29 -213 -29q-147 0 -229.5 70.5t-82.5 191.5zM434 920 q0 -95 107 -95q47 0 125 19l51 12v156h-152q-62 0 -96.5 -24t-34.5 -68z" />
<glyph unicode="&#xab;" horiz-adv-x="1202" d="M63 578q0 64 54 124l262 275h319l-379 -399l379 -400h-319l-262 273q-54 57 -54 127zM524 578q0 64 54 124l266 275h321l-385 -399l385 -400h-321l-266 273q-54 57 -54 127z" />
<glyph unicode="&#xac;" d="M92 569v248h1020v-647h-278v399h-742z" />
<glyph unicode="&#xad;" horiz-adv-x="886" d="M82 539v252h723v-252h-723z" />
<glyph unicode="&#xae;" horiz-adv-x="1910" d="M152 752q0 172 63.5 322t171.5 253.5t255.5 163t311.5 59.5q163 0 309.5 -58.5t255 -161.5t172.5 -253.5t64 -324.5q0 -171 -64 -321t-172 -255.5t-255.5 -166t-309.5 -60.5q-164 0 -311.5 60.5t-255.5 166t-171.5 255.5t-63.5 321zM367 752q0 -132 45 -245t123 -191 t186.5 -122t232.5 -44q163 0 295.5 75t209.5 213.5t77 313.5q0 179 -77 316.5t-209 209.5t-296 72q-124 0 -232.5 -43t-186.5 -120t-123 -189.5t-45 -245.5zM621 360v695q0 119 122 119h295q125 0 198 -67.5t73 -182.5q0 -95 -66 -181l-43 -57l139 -326h-231l-109 265h-155 v-265h-223zM844 784h184l33 52q17 28 23 43.5t6 38.5q0 94 -109 94h-137v-228z" />
<glyph unicode="&#xaf;" horiz-adv-x="1087" d="M158 1274v239h770v-239h-770z" />
<glyph unicode="&#xb0;" horiz-adv-x="974" d="M96 1157q0 177 109.5 292.5t290.5 115.5q180 0 285.5 -115t105.5 -293q0 -180 -107.5 -293.5t-287.5 -113.5q-182 0 -289 114t-107 293zM326 1157q0 -88 45 -141t123 -53q80 0 124 53t44 141q0 85 -46 138t-124 53q-80 0 -123 -52.5t-43 -138.5z" />
<glyph unicode="&#xb1;" d="M94 0v233h1018v-233h-1018zM94 594v246h365v284h278v-284h375v-246h-375v-275h-278v275h-365z" />
<glyph unicode="&#xb4;" horiz-adv-x="1110" d="M315 1329q0 55 45 98l148 136h412l-359 -283q-65 -51 -133 -51q-54 0 -83.5 30.5t-29.5 69.5z" />
<glyph unicode="&#xb5;" d="M104 -381v1507h324v-706q0 -71 38.5 -114.5t121.5 -43.5q74 0 178 29v835h328v-897q0 -79 -37 -121t-115 -65q-166 -47 -367 -47q-113 0 -147 24v-401h-324z" />
<glyph unicode="&#xb6;" horiz-adv-x="1300" d="M61 985q0 113 33.5 209.5t98.5 171t169 116.5t236 42h604v-1905h-254v1671h-186v-1671h-264v836q-142 17 -242.5 92.5t-147.5 187t-47 250.5z" />
<glyph unicode="&#xb7;" horiz-adv-x="765" d="M203 743q0 79 49 125.5t135 46.5q84 0 133 -46.5t49 -125.5q0 -80 -49 -127t-133 -47q-86 0 -135 47t-49 127z" />
<glyph unicode="&#xb8;" horiz-adv-x="1087" d="M313 -362l41 126q88 -43 168 -43q62 0 62 41q0 32 -40.5 42.5t-129.5 7.5l-19 30l84 158h125l-41 -84q81 0 131.5 -38t50.5 -111q0 -83 -58.5 -130t-164.5 -47q-97 0 -209 48z" />
<glyph unicode="&#xba;" d="M172 1094q0 212 116.5 330t317.5 118q199 0 312.5 -118t113.5 -330t-115.5 -330.5t-314.5 -118.5q-202 0 -316 118t-114 331zM440 1094q0 -260 166 -260q81 0 122.5 66.5t41.5 193.5q0 126 -43 192t-125 66q-162 0 -162 -258z" />
<glyph unicode="&#xbb;" horiz-adv-x="1202" d="M37 178l385 400l-385 399h321l267 -275q53 -59 53 -124q0 -71 -53 -127l-267 -273h-321zM504 178l379 400l-379 399h319l262 -275q54 -60 54 -124q0 -70 -54 -127l-262 -273h-319z" />
<glyph unicode="&#xbf;" horiz-adv-x="960" d="M49 -10q0 105 39 188t123 164l145 143l2 144l314 55v-135q0 -75 -15 -118t-65 -93l-135 -135q-84 -84 -84 -189q0 -60 36 -94.5t111 -34.5q114 0 236 37l110 33l43 -262l-100 -29q-171 -49 -326 -49q-201 0 -317.5 99.5t-116.5 275.5zM334 999q0 75 48 118.5t132 43.5 q87 0 134.5 -43t47.5 -119q0 -78 -47.5 -123t-134.5 -45q-84 0 -132 45.5t-48 122.5z" />
<glyph unicode="&#xc0;" horiz-adv-x="1492" d="M16 0l467 1362q59 178 275 178q102 0 172 -46t98 -130l447 -1364h-398l-78 256h-507l-82 -256h-394zM406 1927h411l148 -135q45 -43 45 -98q0 -40 -29.5 -70.5t-83.5 -30.5q-67 0 -133 52zM563 539h367l-180 606z" />
<glyph unicode="&#xc1;" horiz-adv-x="1492" d="M16 0l467 1362q59 178 275 178q102 0 172 -46t98 -130l447 -1364h-398l-78 256h-507l-82 -256h-394zM494 1694q0 55 45 98l147 135h412l-359 -282q-66 -52 -133 -52q-54 0 -83 30.5t-29 70.5zM563 539h367l-180 606z" />
<glyph unicode="&#xc2;" horiz-adv-x="1492" d="M16 0l467 1362q59 178 275 178q102 0 172 -46t98 -130l447 -1364h-398l-78 256h-507l-82 -256h-394zM330 1614l254 270q66 66 174 66q111 0 174 -66l258 -270h-336l-96 133l-92 -133h-336zM563 539h367l-180 606z" />
<glyph unicode="&#xc3;" horiz-adv-x="1492" d="M16 0l467 1362q59 178 275 178q102 0 172 -46t98 -130l447 -1364h-398l-78 256h-507l-82 -256h-394zM295 1704q48 128 129.5 188t177.5 60q95 0 168 -56l68 -47q37 -26 80 -26q38 0 67.5 28.5t58.5 94.5l162 -103q-48 -128 -128.5 -188t-176.5 -60q-90 0 -170 56l-65 47 q-44 28 -82 28q-75 0 -127 -122zM563 539h367l-180 606z" />
<glyph unicode="&#xc4;" horiz-adv-x="1492" d="M16 0l467 1362q59 178 275 178q102 0 172 -46t98 -130l447 -1364h-398l-78 256h-507l-82 -256h-394zM356 1765q0 75 45.5 119.5t124.5 44.5t124.5 -44.5t45.5 -119.5q0 -74 -45.5 -118.5t-124.5 -44.5t-124.5 44.5t-45.5 118.5zM563 539h367l-180 606zM823 1765 q0 75 45.5 119.5t124.5 44.5t124.5 -44.5t45.5 -119.5q0 -74 -45.5 -118.5t-124.5 -44.5t-124.5 44.5t-45.5 118.5z" />
<glyph unicode="&#xc5;" horiz-adv-x="1492" d="M16 0l519 1505q-50 57 -50 133q0 111 78.5 182.5t194.5 71.5t193 -70t77 -184q0 -83 -49 -135l496 -1503h-398l-78 256h-507l-82 -256h-394zM563 539h367l-180 606zM651 1638q0 -45 29 -74.5t78 -29.5q47 0 77.5 29.5t30.5 74.5t-29.5 74t-78.5 29t-78 -29.5t-29 -73.5z " />
<glyph unicode="&#xc6;" horiz-adv-x="2187" d="M16 0l545 1346q71 178 305 178h1235v-289h-706v-322h622v-276h-622v-350h712v-287h-901q-96 0 -150.5 48t-54.5 134v74h-493l-94 -256h-398zM602 539h399v694h-145z" />
<glyph unicode="&#xc7;" horiz-adv-x="1404" d="M78 760q0 189 53.5 337.5t150.5 243.5t228.5 144t290.5 49q189 3 426 -72l123 -39l-47 -313l-123 39q-183 59 -330 59q-178 0 -271.5 -111.5t-93.5 -336.5t94.5 -336t270.5 -111q161 0 326 56l127 43l47 -316l-119 -37q-233 -73 -432 -73q-161 0 -292.5 48.5t-227.5 143 t-148.5 243t-52.5 339.5zM573 -362l41 126q88 -43 168 -43q62 0 62 41q0 32 -40.5 42.5t-129.5 7.5l-19 30l84 158h125l-41 -84q81 0 132 -38t51 -111q0 -82 -59 -129.5t-165 -47.5q-97 0 -209 48z" />
<glyph unicode="&#xc8;" horiz-adv-x="1294" d="M109 193v1138q0 90 55 141.5t151 51.5h895v-289h-708v-322h620v-276h-620v-350h712v-287h-899q-97 0 -151.5 51t-54.5 142zM291 1927h411l148 -135q45 -43 45 -98q0 -40 -29.5 -70.5t-83.5 -30.5q-67 0 -133 52z" />
<glyph unicode="&#xc9;" horiz-adv-x="1294" d="M109 193v1138q0 90 55 141.5t151 51.5h895v-289h-708v-322h620v-276h-620v-350h712v-287h-899q-97 0 -151.5 51t-54.5 142zM465 1694q0 55 45 98l147 135h412l-358 -282q-66 -52 -133 -52q-54 0 -83.5 30.5t-29.5 70.5z" />
<glyph unicode="&#xca;" horiz-adv-x="1294" d="M109 193v1138q0 90 55 141.5t151 51.5h895v-289h-708v-322h620v-276h-620v-350h712v-287h-899q-97 0 -151.5 51t-54.5 142zM242 1614l254 270q66 66 174 66q111 0 174 -66l258 -270h-336l-96 133l-92 -133h-336z" />
<glyph unicode="&#xcb;" horiz-adv-x="1294" d="M109 193v1138q0 90 55 141.5t151 51.5h895v-289h-708v-322h620v-276h-620v-350h712v-287h-899q-97 0 -151.5 51t-54.5 142zM279 1763q0 75 45.5 119.5t124.5 44.5t124 -44t45 -120q0 -74 -45 -119t-124 -45t-124.5 45t-45.5 119zM745 1763q0 75 45.5 119.5t124.5 44.5 t124.5 -44.5t45.5 -119.5q0 -74 -45.5 -119t-124.5 -45t-124.5 45t-45.5 119z" />
<glyph unicode="&#xcc;" horiz-adv-x="616" d="M-55 1925h411l148 -135q45 -43 45 -98q0 -40 -29.5 -70.5t-83.5 -30.5q-68 0 -133 51zM109 0v1524h399v-1524h-399z" />
<glyph unicode="&#xcd;" horiz-adv-x="616" d="M92 1692q0 55 45 98l148 135h411l-358 -283q-65 -51 -133 -51q-54 0 -83.5 30.5t-29.5 70.5zM109 0v1524h399v-1524h-399z" />
<glyph unicode="&#xce;" horiz-adv-x="616" d="M-121 1614l254 270q66 66 174 66q111 0 174 -66l258 -270h-336l-96 133l-92 -133h-336zM109 0v1524h399v-1524h-399z" />
<glyph unicode="&#xcf;" horiz-adv-x="616" d="M-90 1765q0 75 45.5 119.5t124.5 44.5t124.5 -44.5t45.5 -119.5q0 -74 -45.5 -118.5t-124.5 -44.5t-124.5 44.5t-45.5 118.5zM109 0v1524h399v-1524h-399zM377 1765q0 75 45.5 119.5t124.5 44.5t124.5 -44.5t45.5 -119.5q0 -74 -45.5 -118.5t-124.5 -44.5t-124.5 44.5 t-45.5 118.5z" />
<glyph unicode="&#xd0;" horiz-adv-x="1548" d="M20 670v204h117v412q0 238 205 238h397q337 0 533 -203.5t196 -562.5q0 -357 -199 -557.5t-534 -200.5h-393q-205 0 -205 229v441h-117zM530 297h158q391 0 391 461q0 235 -104.5 352t-298.5 117h-146v-353h310v-204h-310v-373z" />
<glyph unicode="&#xd1;" horiz-adv-x="1552" d="M109 0v1296q0 118 72.5 180t205.5 62q183 0 262 -147l453 -859v992h340v-1299q0 -116 -72.5 -176.5t-204.5 -60.5q-113 0 -180 52.5t-115 145.5l-421 805v-991h-340zM342 1704q48 128 129.5 188t177.5 60q95 0 168 -56l68 -47q37 -26 80 -26q38 0 68 28.5t59 94.5 l161 -103q-48 -128 -128.5 -188t-176.5 -60q-90 0 -170 56l-65 47q-44 28 -82 28q-75 0 -127 -122z" />
<glyph unicode="&#xd2;" horiz-adv-x="1658" d="M78 758q0 243 95.5 419.5t265.5 266.5t395 90q343 0 545 -204.5t202 -571.5q0 -184 -55 -331t-155 -244t-239.5 -148t-308.5 -51q-168 0 -305.5 52t-235 149.5t-151 243.5t-53.5 329zM473 1925h412l147 -135q45 -43 45 -98q0 -40 -29 -70.5t-83 -30.5q-69 0 -134 51z M475 758q0 -236 94 -365t265 -129q168 0 259 128.5t91 365.5q0 235 -95 364t-266 129q-167 0 -257.5 -128.5t-90.5 -364.5z" />
<glyph unicode="&#xd3;" horiz-adv-x="1658" d="M78 758q0 243 95.5 419.5t265.5 266.5t395 90q343 0 545 -204.5t202 -571.5q0 -184 -55 -331t-155 -244t-239.5 -148t-308.5 -51q-168 0 -305.5 52t-235 149.5t-151 243.5t-53.5 329zM475 758q0 -236 94 -365t265 -129q168 0 259 128.5t91 365.5q0 235 -95 364t-266 129 q-167 0 -257.5 -128.5t-90.5 -364.5zM616 1692q0 54 46 98l147 135h412l-359 -283q-65 -51 -133 -51q-54 0 -83.5 30.5t-29.5 70.5z" />
<glyph unicode="&#xd4;" horiz-adv-x="1658" d="M78 758q0 243 95.5 419.5t265.5 266.5t395 90q343 0 545 -204.5t202 -571.5q0 -184 -55 -331t-155 -244t-239.5 -148t-308.5 -51q-168 0 -305.5 52t-235 149.5t-151 243.5t-53.5 329zM410 1614l254 270q66 66 174 66q111 0 174 -66l258 -270h-336l-96 133l-93 -133h-335z M475 758q0 -236 94 -365t265 -129q168 0 259 128.5t91 365.5q0 235 -95 364t-266 129q-167 0 -257.5 -128.5t-90.5 -364.5z" />
<glyph unicode="&#xd5;" horiz-adv-x="1658" d="M78 758q0 243 95.5 419.5t265.5 266.5t395 90q343 0 545 -204.5t202 -571.5q0 -184 -55 -331t-155 -244t-239.5 -148t-308.5 -51q-168 0 -305.5 52t-235 149.5t-151 243.5t-53.5 329zM389 1706q48 128 129.5 188t177.5 60q95 0 168 -56l68 -47q37 -26 80 -26 q38 0 68 28.5t59 94.5l161 -103q-48 -128 -128.5 -188t-176.5 -60q-90 0 -170 56l-65 47q-45 29 -82 29q-75 0 -127 -123zM475 758q0 -236 94 -365t265 -129q168 0 259 128.5t91 365.5q0 235 -95 364t-266 129q-167 0 -257.5 -128.5t-90.5 -364.5z" />
<glyph unicode="&#xd6;" horiz-adv-x="1658" d="M78 758q0 243 95.5 419.5t265.5 266.5t395 90q343 0 545 -204.5t202 -571.5q0 -184 -55 -331t-155 -244t-239.5 -148t-308.5 -51q-168 0 -305.5 52t-235 149.5t-151 243.5t-53.5 329zM428 1763q0 75 45.5 119.5t124.5 44.5t124.5 -44.5t45.5 -119.5q0 -74 -45.5 -119 t-124.5 -45t-124.5 45t-45.5 119zM475 758q0 -236 94 -365t265 -129q168 0 259 128.5t91 365.5q0 235 -95 364t-266 129q-167 0 -257.5 -128.5t-90.5 -364.5zM895 1763q0 75 45.5 119.5t124.5 44.5t124.5 -44.5t45.5 -119.5q0 -74 -45.5 -119t-124.5 -45t-124.5 45 t-45.5 119z" />
<glyph unicode="&#xd7;" d="M94 276l305 310l-305 309l197 197l309 -308l307 308l199 -197l-307 -309l307 -310l-199 -196l-307 305l-309 -305z" />
<glyph unicode="&#xd8;" horiz-adv-x="1658" d="M78 758q0 182 55 329t154.5 244.5t238 150t305.5 52.5q146 0 267 -41l69 129h260l-124 -229q133 -99 204.5 -259.5t71.5 -375.5q0 -185 -54.5 -331.5t-154.5 -242.5t-239 -147t-308 -51q-144 0 -272 39l-70 -129h-262l127 231q-268 204 -268 631zM473 758q0 -180 59 -291 l418 760q-63 24 -127 24q-168 0 -259 -129t-91 -364zM698 291q58 -27 133 -27q168 0 259.5 128t91.5 366q0 87 -17.5 167t-46.5 130z" />
<glyph unicode="&#xd9;" horiz-adv-x="1499" d="M98 563v961h396v-967q0 -129 64.5 -194.5t189.5 -65.5q127 0 191.5 66t64.5 194v967h395v-961q0 -280 -168 -435t-483 -155t-482.5 154.5t-167.5 435.5zM344 1927h412l147 -135q45 -43 45 -98q0 -40 -29 -70.5t-83 -30.5q-68 0 -134 52z" />
<glyph unicode="&#xda;" horiz-adv-x="1499" d="M98 563v961h396v-967q0 -129 64.5 -194.5t189.5 -65.5q127 0 191.5 66t64.5 194v967h395v-961q0 -280 -168 -435t-483 -155t-482.5 154.5t-167.5 435.5zM565 1694q0 55 45 98l148 135h411l-358 -282q-66 -52 -133 -52q-54 0 -83.5 30.5t-29.5 70.5z" />
<glyph unicode="&#xdb;" horiz-adv-x="1499" d="M98 563v961h396v-967q0 -129 64.5 -194.5t189.5 -65.5q127 0 191.5 66t64.5 194v967h395v-961q0 -280 -168 -435t-483 -155t-482.5 154.5t-167.5 435.5zM319 1614l254 270q66 66 175 66q111 0 174 -66l258 -270h-336l-96 133l-93 -133h-336z" />
<glyph unicode="&#xdc;" horiz-adv-x="1499" d="M98 563v961h396v-967q0 -129 64.5 -194.5t189.5 -65.5q127 0 191.5 66t64.5 194v967h395v-961q0 -280 -168 -435t-483 -155t-482.5 154.5t-167.5 435.5zM352 1763q0 75 45.5 119.5t124.5 44.5t124.5 -44.5t45.5 -119.5q0 -74 -45.5 -119t-124.5 -45t-124.5 45t-45.5 119z M819 1763q0 75 45.5 119.5t124.5 44.5t124.5 -44.5t45.5 -119.5q0 -74 -45.5 -119t-124.5 -45t-124.5 45t-45.5 119z" />
<glyph unicode="&#xdd;" horiz-adv-x="1501" d="M12 1524h428l318 -570l305 570h424l-537 -901v-623h-395v618zM578 1694q0 55 45 98l147 135h412l-359 -282q-66 -52 -133 -52q-54 0 -83 30.5t-29 70.5z" />
<glyph unicode="&#xde;" horiz-adv-x="1361" d="M109 0v1524h385v-240h286q233 0 371.5 -133.5t138.5 -362.5q0 -231 -143 -364t-387 -133h-266v-291h-385zM494 573h231q97 0 153 57t56 158q0 110 -63.5 161.5t-174.5 51.5h-202v-428z" />
<glyph unicode="&#xdf;" horiz-adv-x="1193" d="M102 0v1153q0 113 35.5 198t99.5 136.5t145.5 76.5t180.5 25q210 0 336.5 -104t126.5 -293q0 -171 -88 -293l-61 -86l96 -92q81 -78 118 -151t37 -175q0 -184 -120.5 -289.5t-333.5 -105.5h-137v258h120q75 0 116.5 43.5t41.5 114.5q0 44 -17 78t-53 73l-108 117 q-43 46 -48 105.5t27 115.5l60 115q37 67 37 160q0 57 -45.5 105t-102.5 48q-139 0 -139 -172v-1161h-324z" />
<glyph unicode="&#xe0;" horiz-adv-x="1241" d="M74 319q0 84 28 148t74.5 103t116 63.5t143 33.5t164.5 9h176v59q0 146 -176 146q-150 0 -330 -58l-118 -39l-39 250l108 33q235 72 414 72q450 0 450 -389v-498l121 -74l-119 -205l-102 54q-66 35 -176 12l-47 -10q-184 -41 -285 -41q-189 0 -296 87.5t-107 243.5z M266 1563h412l147 -136q45 -43 45 -98q0 -40 -29 -70t-83 -30q-68 0 -133 51zM391 332q0 -59 39.5 -89t110.5 -30q58 0 164 27l75 18v205h-209q-180 0 -180 -131z" />
<glyph unicode="&#xe1;" horiz-adv-x="1241" d="M74 319q0 84 28 148t74.5 103t116 63.5t143 33.5t164.5 9h176v59q0 146 -176 146q-150 0 -330 -58l-118 -39l-39 250l108 33q235 72 414 72q450 0 450 -389v-498l121 -74l-119 -205l-102 54q-66 35 -176 12l-47 -10q-184 -41 -285 -41q-189 0 -296 87.5t-107 243.5z M391 332q0 -59 39.5 -89t110.5 -30q58 0 164 27l75 18v205h-209q-180 0 -180 -131zM434 1329q0 55 45 98l148 136h411l-358 -283q-65 -51 -133 -51q-54 0 -83.5 30.5t-29.5 69.5z" />
<glyph unicode="&#xe2;" horiz-adv-x="1241" d="M74 319q0 84 28 148t74.5 103t116 63.5t143 33.5t164.5 9h176v59q0 146 -176 146q-150 0 -330 -58l-118 -39l-39 250l108 33q235 72 414 72q450 0 450 -389v-498l121 -74l-119 -205l-102 54q-66 35 -176 12l-47 -10q-184 -41 -285 -41q-189 0 -296 87.5t-107 243.5z M199 1231l254 270q66 66 174 66q111 0 174 -66l258 -270h-336l-96 133l-92 -133h-336zM391 332q0 -59 39.5 -89t110.5 -30q58 0 164 27l75 18v205h-209q-180 0 -180 -131z" />
<glyph unicode="&#xe3;" horiz-adv-x="1241" d="M74 319q0 84 28 148t74.5 103t116 63.5t143 33.5t164.5 9h176v59q0 146 -176 146q-150 0 -330 -58l-118 -39l-39 250l108 33q235 72 414 72q450 0 450 -389v-498l121 -74l-119 -205l-102 54q-66 35 -176 12l-47 -10q-184 -41 -285 -41q-189 0 -296 87.5t-107 243.5z M170 1329q48 128 129.5 188t177.5 60t168 -55l68 -47q39 -27 80 -27q38 0 68 28.5t59 94.5l161 -103q-48 -128 -128.5 -187.5t-176.5 -59.5q-91 0 -170 55l-65 47q-45 29 -82 29q-75 0 -127 -123zM391 332q0 -59 39.5 -89t110.5 -30q58 0 164 27l75 18v205h-209 q-180 0 -180 -131z" />
<glyph unicode="&#xe4;" horiz-adv-x="1241" d="M74 319q0 84 28 148t74.5 103t116 63.5t143 33.5t164.5 9h176v59q0 146 -176 146q-150 0 -330 -58l-118 -39l-39 250l108 33q235 72 414 72q450 0 450 -389v-498l121 -74l-119 -205l-102 54q-66 35 -176 12l-47 -10q-184 -41 -285 -41q-189 0 -296 87.5t-107 243.5z M227 1413q0 75 45.5 119.5t124.5 44.5t124.5 -44.5t45.5 -119.5q0 -74 -45.5 -119t-124.5 -45t-124.5 45t-45.5 119zM391 332q0 -59 39.5 -89t110.5 -30q58 0 164 27l75 18v205h-209q-180 0 -180 -131zM694 1413q0 75 45.5 119.5t124.5 44.5t124.5 -44.5t45.5 -119.5 q0 -74 -45.5 -119t-124.5 -45t-124.5 45t-45.5 119z" />
<glyph unicode="&#xe5;" horiz-adv-x="1241" d="M74 319q0 84 28 148t74.5 103t116 63.5t143 33.5t164.5 9h176v59q0 146 -176 146q-150 0 -330 -58l-118 -39l-39 250l108 33q235 72 414 72q450 0 450 -389v-498l121 -74l-119 -205l-102 54q-66 35 -176 12l-47 -10q-184 -41 -285 -41q-189 0 -296 87.5t-107 243.5z M356 1454q0 112 77 182t194 70q116 0 194 -70t78 -182q0 -111 -79 -183.5t-193 -72.5t-192.5 72.5t-78.5 183.5zM391 332q0 -59 39.5 -89t110.5 -30q58 0 164 27l75 18v205h-209q-180 0 -180 -131zM520 1454q0 -46 29 -75t78 -29q47 0 77.5 29t30.5 75q0 43 -30 72.5 t-78 29.5q-49 0 -78 -29.5t-29 -72.5z" />
<glyph unicode="&#xe6;" horiz-adv-x="1900" d="M74 319q0 87 30 151.5t78.5 103.5t122 62.5t148 31.5t168.5 8h155v59q0 146 -176 146q-139 0 -332 -60l-116 -37l-39 250l114 35q229 70 410 70q227 0 332 -123q137 125 344 125q246 0 384 -138.5t138 -414.5q0 -73 -39.5 -100t-124.5 -27h-581q12 -110 89.5 -163.5 t206.5 -53.5q136 0 285 47l111 35l39 -238l-109 -35q-201 -65 -369 -65q-162 0 -284 57q-70 29 -137 16l-123 -26q-202 -45 -322 -47q-189 0 -296 87.5t-107 243.5zM391 332q0 -59 39.5 -89t110.5 -30q33 0 79 7.5t120 23t100 20.5q-44 81 -56 199h-213q-180 0 -180 -131z M1090 674h428q0 106 -53 171.5t-162 65.5q-93 0 -149 -63t-64 -174z" />
<glyph unicode="&#xe7;" horiz-adv-x="1091" d="M76 563q0 278 146 428t392 150q143 0 324 -56l94 -28l-39 -262l-90 26q-160 49 -252 49q-243 0 -243 -307q0 -309 243 -309q97 0 252 51l90 27l39 -262l-94 -29q-178 -55 -324 -55q-247 0 -392.5 147.5t-145.5 429.5zM373 -362l41 126q88 -43 168 -43q61 0 61 41 q0 32 -40.5 42.5t-129.5 7.5l-18 30l84 158h125l-41 -84q81 0 131.5 -38t50.5 -111q0 -83 -58.5 -130t-164.5 -47q-97 0 -209 48z" />
<glyph unicode="&#xe8;" horiz-adv-x="1198" d="M76 561q0 117 28 214t77.5 164.5t117.5 114t147 68t168 21.5q245 0 383 -139t138 -414q0 -66 -31.5 -96.5t-99.5 -30.5h-613q12 -110 84.5 -164.5t192.5 -54.5q144 0 305 49l108 35l39 -240l-108 -35q-210 -65 -369 -65q-264 0 -415.5 146.5t-151.5 426.5zM225 1563h412 l147 -136q45 -43 45 -98q0 -40 -29 -70t-83 -30q-68 0 -133 51zM389 674h430q0 105 -53.5 171t-161.5 66q-95 0 -151 -63t-64 -174z" />
<glyph unicode="&#xe9;" horiz-adv-x="1198" d="M76 561q0 117 28 214t77.5 164.5t117.5 114t147 68t168 21.5q245 0 383 -139t138 -414q0 -66 -31.5 -96.5t-99.5 -30.5h-613q12 -110 84.5 -164.5t192.5 -54.5q144 0 305 49l108 35l39 -240l-108 -35q-210 -65 -369 -65q-264 0 -415.5 146.5t-151.5 426.5zM389 674h430 q0 105 -53.5 171t-161.5 66q-95 0 -151 -63t-64 -174zM424 1329q0 55 45 98l147 136h412l-358 -283q-65 -51 -133 -51q-54 0 -83.5 30.5t-29.5 69.5z" />
<glyph unicode="&#xea;" horiz-adv-x="1198" d="M76 561q0 117 28 214t77.5 164.5t117.5 114t147 68t168 21.5q245 0 383 -139t138 -414q0 -66 -31.5 -96.5t-99.5 -30.5h-613q12 -110 84.5 -164.5t192.5 -54.5q144 0 305 49l108 35l39 -240l-108 -35q-210 -65 -369 -65q-264 0 -415.5 146.5t-151.5 426.5zM186 1231 l254 270q66 66 174 66q111 0 174 -66l259 -270h-336l-97 133l-92 -133h-336zM389 674h430q0 105 -53.5 171t-161.5 66q-95 0 -151 -63t-64 -174z" />
<glyph unicode="&#xeb;" horiz-adv-x="1198" d="M76 561q0 117 28 214t77.5 164.5t117.5 114t147 68t168 21.5q245 0 383 -139t138 -414q0 -66 -31.5 -96.5t-99.5 -30.5h-613q12 -110 84.5 -164.5t192.5 -54.5q144 0 305 49l108 35l39 -240l-108 -35q-210 -65 -369 -65q-264 0 -415.5 146.5t-151.5 426.5zM213 1413 q0 75 45.5 119.5t124.5 44.5t124.5 -44.5t45.5 -119.5q0 -74 -45.5 -119t-124.5 -45t-124.5 45t-45.5 119zM389 674h430q0 105 -53.5 171t-161.5 66q-95 0 -151 -63t-64 -174zM680 1413q0 75 45.5 119.5t124.5 44.5t124.5 -44.5t45.5 -119.5q0 -74 -45.5 -119t-124.5 -45 t-124.5 45t-45.5 119z" />
<glyph unicode="&#xec;" horiz-adv-x="540" d="M-111 1563h412l148 -136q45 -43 45 -98q0 -39 -29.5 -69.5t-83.5 -30.5q-68 0 -133 51zM111 0v1126h319v-1126h-319z" />
<glyph unicode="&#xed;" horiz-adv-x="540" d="M33 1329q0 55 45 98l147 136h412l-358 -283q-65 -51 -134 -51q-54 0 -83 30t-29 70zM111 0v1126h319v-1126h-319z" />
<glyph unicode="&#xee;" horiz-adv-x="540" d="M-152 1231l254 270q66 66 174 66q112 0 175 -66l258 -270h-336l-97 133l-92 -133h-336zM111 0v1126h319v-1126h-319z" />
<glyph unicode="&#xef;" horiz-adv-x="540" d="M-129 1413q0 75 45.5 119.5t124.5 44.5t124.5 -44.5t45.5 -119.5q0 -74 -45.5 -119t-124.5 -45t-124.5 45t-45.5 119zM111 0v1126h319v-1126h-319zM338 1413q0 75 45.5 119.5t124.5 44.5t124.5 -44.5t45.5 -119.5q0 -74 -45.5 -119t-124.5 -45t-124.5 45t-45.5 119z" />
<glyph unicode="&#xf0;" horiz-adv-x="1280" d="M82 532q0 232 128 373.5t359 141.5q29 0 59.5 -3t52 -6t50.5 -9.5t41.5 -10t41 -12t32.5 -9.5v68q0 88 -33 158l-283 -140v172l175 86q-67 31 -154 31h-121v191h193q218 0 352 -93l225 109v-170l-110 -55q84 -131 84 -350v-496q0 -238 -143 -378t-408 -140 q-258 0 -399.5 148.5t-141.5 393.5zM412 526q0 -143 56 -220t163 -77q213 0 213 285v260q-116 30 -203 33q-229 0 -229 -281z" />
<glyph unicode="&#xf1;" horiz-adv-x="1202" d="M104 0v897q0 76 37.5 120t114.5 66q191 54 369 54q242 0 355.5 -107t113.5 -297v-733h-324v707q0 155 -160 155q-77 0 -176 -28v-834h-330zM147 1329q48 128 130 188t178 60t168 -55l67 -47q39 -27 80 -27q38 0 68 28.5t59 94.5l162 -103q-48 -128 -128.5 -187.5 t-176.5 -59.5q-91 0 -170 55l-66 47q-45 29 -82 29q-75 0 -127 -123z" />
<glyph unicode="&#xf2;" horiz-adv-x="1267" d="M76 563q0 274 151 426t410 152q261 0 409 -151.5t148 -426.5q0 -274 -151 -424.5t-412 -150.5t-408 150.5t-147 424.5zM283 1563h411l148 -136q45 -43 45 -98q0 -39 -29.5 -69.5t-83.5 -30.5q-68 0 -133 51zM406 563q0 -340 231 -340q227 0 227 340q0 166 -59.5 253 t-173.5 87q-225 0 -225 -340z" />
<glyph unicode="&#xf3;" horiz-adv-x="1267" d="M76 563q0 274 151 426t410 152q261 0 409 -151.5t148 -426.5q0 -274 -151 -424.5t-412 -150.5t-408 150.5t-147 424.5zM406 563q0 -340 231 -340q227 0 227 340q0 166 -59.5 253t-173.5 87q-225 0 -225 -340zM406 1329q0 55 45 98l147 136h412l-359 -283 q-65 -51 -133 -51q-54 0 -83 30t-29 70z" />
<glyph unicode="&#xf4;" horiz-adv-x="1267" d="M76 563q0 274 151 426t410 152q261 0 409 -151.5t148 -426.5q0 -274 -151 -424.5t-412 -150.5t-408 150.5t-147 424.5zM207 1231l254 270q66 66 174 66q111 0 174 -66l258 -270h-336l-96 133l-92 -133h-336zM406 563q0 -340 231 -340q227 0 227 340q0 166 -59.5 253 t-173.5 87q-225 0 -225 -340z" />
<glyph unicode="&#xf5;" horiz-adv-x="1267" d="M76 563q0 274 151 426t410 152q261 0 409 -151.5t148 -426.5q0 -274 -151 -424.5t-412 -150.5t-408 150.5t-147 424.5zM195 1329q48 128 129.5 188t177.5 60t168 -55l67 -47q39 -27 80 -27q38 0 68 28.5t59 94.5l162 -103q-48 -128 -128.5 -187.5t-176.5 -59.5 q-91 0 -170 55l-66 47q-45 29 -82 29q-75 0 -127 -123zM406 563q0 -340 231 -340q227 0 227 340q0 166 -59.5 253t-173.5 87q-225 0 -225 -340z" />
<glyph unicode="&#xf6;" horiz-adv-x="1267" d="M76 563q0 274 151 426t410 152q261 0 409 -151.5t148 -426.5q0 -274 -151 -424.5t-412 -150.5t-408 150.5t-147 424.5zM236 1413q0 75 45.5 119.5t124.5 44.5t124 -44t45 -120q0 -74 -45 -119t-124 -45t-124.5 45t-45.5 119zM406 563q0 -340 231 -340q227 0 227 340 q0 166 -59.5 253t-173.5 87q-225 0 -225 -340zM702 1413q0 75 45.5 119.5t124.5 44.5t124.5 -44.5t45.5 -119.5q0 -74 -45.5 -119t-124.5 -45t-124.5 45t-45.5 119z" />
<glyph unicode="&#xf7;" d="M94 477v248h1018v-248h-1018zM420 199q0 72 48.5 115.5t131.5 43.5q85 0 132.5 -43t47.5 -116q0 -72 -47.5 -115t-132.5 -43q-83 0 -131.5 43.5t-48.5 114.5zM420 999q0 71 49 115.5t131 44.5q85 0 132.5 -44t47.5 -116t-47.5 -114.5t-132.5 -42.5q-83 0 -131.5 43 t-48.5 114z" />
<glyph unicode="&#xf8;" horiz-adv-x="1267" d="M76 563q0 274 151 426t410 152q91 0 184 -27l60 107h229l-109 -195q193 -151 193 -463q0 -274 -151 -424.5t-412 -150.5q-96 0 -182 22l-62 -116h-233l112 204q-190 151 -190 465zM391 563q0 -113 39 -176l268 504q-24 14 -67 14q-117 0 -178.5 -88.5t-61.5 -253.5z M571 233q25 -10 66 -10q118 0 180 86.5t62 253.5q0 100 -37 176z" />
<glyph unicode="&#xf9;" horiz-adv-x="1202" d="M104 391v735h324v-706q0 -158 160 -158q74 0 178 29v835h328v-899q0 -78 -37.5 -121.5t-114.5 -64.5q-178 -51 -367 -51q-242 0 -356.5 106.5t-114.5 294.5zM217 1563h412l147 -136q45 -43 45 -98q0 -40 -29 -70t-83 -30q-69 0 -134 51z" />
<glyph unicode="&#xfa;" horiz-adv-x="1202" d="M104 391v735h324v-706q0 -158 160 -158q74 0 178 29v835h328v-899q0 -78 -37.5 -121.5t-114.5 -64.5q-178 -51 -367 -51q-242 0 -356.5 106.5t-114.5 294.5zM379 1329q0 55 45 98l147 136h412l-358 -283q-65 -51 -133 -51q-54 0 -83.5 30.5t-29.5 69.5z" />
<glyph unicode="&#xfb;" horiz-adv-x="1202" d="M104 391v735h324v-706q0 -158 160 -158q74 0 178 29v835h328v-899q0 -78 -37.5 -121.5t-114.5 -64.5q-178 -51 -367 -51q-242 0 -356.5 106.5t-114.5 294.5zM172 1231l254 270q66 66 174 66q111 0 174 -66l258 -270h-336l-96 133l-92 -133h-336z" />
<glyph unicode="&#xfc;" horiz-adv-x="1202" d="M104 391v735h324v-706q0 -158 160 -158q74 0 178 29v835h328v-899q0 -78 -37.5 -121.5t-114.5 -64.5q-178 -51 -367 -51q-242 0 -356.5 106.5t-114.5 294.5zM199 1413q0 75 45.5 119.5t124.5 44.5t124.5 -44.5t45.5 -119.5q0 -74 -45.5 -119t-124.5 -45t-124.5 45 t-45.5 119zM666 1413q0 75 45.5 119.5t124.5 44.5t124.5 -44.5t45.5 -119.5q0 -74 -45.5 -119t-124.5 -45t-124.5 45t-45.5 119z" />
<glyph unicode="&#xfd;" horiz-adv-x="1191" d="M29 1126h360l234 -743l204 743h338l-387 -1161q-57 -172 -151.5 -255t-261.5 -83q-119 0 -277 47l39 238q133 -37 197 -37q24 0 42 3t32 12.5t22.5 15.5t16.5 22.5t11 23.5t10 28.5t9 27.5zM440 1329q0 55 45 98l148 136h411l-358 -283q-65 -51 -133 -51 q-54 0 -83.5 30.5t-29.5 69.5z" />
<glyph unicode="&#xfe;" horiz-adv-x="1230" d="M104 -381v1911l324 57v-489q120 35 229 35q498 0 498 -566q0 -275 -128.5 -424t-377.5 -149q-97 0 -221 39v-355zM428 283q117 -31 176 -31q121 0 176.5 77t55.5 234t-55.5 234t-176.5 77q-61 0 -176 -28v-563z" />
<glyph unicode="&#xff;" horiz-adv-x="1191" d="M29 1126h360l234 -743l204 743h338l-387 -1161q-57 -172 -151.5 -255t-261.5 -83q-119 0 -277 47l39 238q133 -37 197 -37q24 0 42 3t32 12.5t22.5 15.5t16.5 22.5t11 23.5t10 28.5t9 27.5zM221 1413q0 75 45.5 119.5t124.5 44.5t124.5 -44.5t45.5 -119.5 q0 -74 -45.5 -119t-124.5 -45t-124.5 45t-45.5 119zM688 1413q0 75 45.5 119.5t124.5 44.5t124.5 -44.5t45.5 -119.5q0 -74 -45.5 -119t-124.5 -45t-124.5 45t-45.5 119z" />
<glyph unicode="&#x152;" horiz-adv-x="2201" d="M78 758q0 359 196 562.5t533 203.5h1311v-289h-707v-322h619v-276h-619v-350h713v-287h-1313q-335 0 -534 200.5t-199 557.5zM467 758q0 -223 91.5 -342t258.5 -119h199v932h-185q-172 0 -268 -125t-96 -346z" />
<glyph unicode="&#x153;" horiz-adv-x="1988" d="M76 563q0 274 151 426t410 152q258 0 391 -158q135 160 377 160q245 0 382.5 -138.5t137.5 -414.5q0 -66 -31.5 -96.5t-99.5 -30.5h-612q12 -110 84 -164.5t192 -54.5q153 0 305 49l109 35l39 -240l-109 -35q-210 -65 -368 -65q-272 0 -408 157q-133 -157 -395 -157 q-261 0 -408 150.5t-147 424.5zM406 563q0 -340 231 -340q227 0 227 340q0 166 -59.5 253t-173.5 87q-225 0 -225 -340zM1180 674h430q0 105 -53.5 171t-161.5 66q-95 0 -151 -63t-64 -174z" />
<glyph unicode="&#x178;" horiz-adv-x="1501" d="M12 1524h428l318 -570l305 570h424l-537 -901v-623h-395v618zM360 1765q0 75 45.5 119.5t124.5 44.5t124.5 -44.5t45.5 -119.5q0 -74 -45.5 -118.5t-124.5 -44.5t-124.5 44.5t-45.5 118.5zM827 1765q0 75 45.5 119.5t124.5 44.5t124.5 -44.5t45.5 -119.5 q0 -74 -45.5 -118.5t-124.5 -44.5t-124.5 44.5t-45.5 118.5z" />
<glyph unicode="&#x2c6;" horiz-adv-x="1087" d="M147 1231l254 270q66 66 174 66q112 0 175 -66l258 -270h-336l-97 133l-92 -133h-336z" />
<glyph unicode="&#x2dc;" horiz-adv-x="1087" d="M88 1329q48 128 129.5 188t177.5 60t168 -55l68 -47q39 -27 80 -27q38 0 68 28.5t59 94.5l161 -103q-48 -128 -128.5 -187.5t-176.5 -59.5q-91 0 -170 55l-65 47q-45 29 -82 29q-75 0 -127 -123z" />
<glyph unicode="&#x2000;" horiz-adv-x="977" />
<glyph unicode="&#x2001;" horiz-adv-x="1954" />
<glyph unicode="&#x2002;" horiz-adv-x="977" />
<glyph unicode="&#x2003;" horiz-adv-x="1954" />
<glyph unicode="&#x2004;" horiz-adv-x="651" />
<glyph unicode="&#x2005;" horiz-adv-x="488" />
<glyph unicode="&#x2006;" horiz-adv-x="325" />
<glyph unicode="&#x2007;" horiz-adv-x="325" />
<glyph unicode="&#x2008;" horiz-adv-x="244" />
<glyph unicode="&#x2009;" horiz-adv-x="390" />
<glyph unicode="&#x200a;" horiz-adv-x="108" />
<glyph unicode="&#x2010;" horiz-adv-x="886" d="M82 539v252h723v-252h-723z" />
<glyph unicode="&#x2011;" horiz-adv-x="886" d="M82 539v252h723v-252h-723z" />
<glyph unicode="&#x2012;" horiz-adv-x="886" d="M82 539v252h723v-252h-723z" />
<glyph unicode="&#x2013;" d="M82 539v249h1044v-249h-1044z" />
<glyph unicode="&#x2014;" horiz-adv-x="2048" d="M123 539v247h1802v-247h-1802z" />
<glyph unicode="&#x2018;" horiz-adv-x="520" d="M49 1065l115 391q29 105 155 105q86 0 122 -47.5t18 -118.5l-78 -330h-332z" />
<glyph unicode="&#x2019;" horiz-adv-x="520" d="M59 1231l78 332h332l-115 -392q-28 -104 -155 -104q-86 0 -122 46.5t-18 117.5z" />
<glyph unicode="&#x201a;" horiz-adv-x="520" d="M59 -20l78 329h332l-115 -391q-28 -104 -155 -104q-86 0 -122 47.5t-18 118.5z" />
<glyph unicode="&#x201c;" horiz-adv-x="907" d="M35 1065l112 391q32 105 144 105q86 0 116 -46.5t11 -119.5l-78 -330h-305zM451 1065l112 391q16 53 48.5 79t95.5 26q85 0 115.5 -46.5t11.5 -119.5l-78 -330h-305z" />
<glyph unicode="&#x201d;" horiz-adv-x="907" d="M57 1231l78 332h305l-112 -392q-16 -53 -48.5 -78.5t-95.5 -25.5q-86 0 -116 45.5t-11 118.5zM473 1231l78 332h305l-115 -392q-14 -50 -50 -77t-91 -27q-86 0 -116 45.5t-11 118.5z" />
<glyph unicode="&#x201e;" horiz-adv-x="907" d="M57 -20l78 329h305l-112 -391q-16 -53 -48.5 -78.5t-95.5 -25.5q-86 0 -116 46.5t-11 119.5zM473 -20l78 329h305l-115 -391q-14 -50 -50 -77t-91 -27q-86 0 -116 46.5t-11 119.5z" />
<glyph unicode="&#x2022;" horiz-adv-x="944" d="M147 678q0 163 87 255.5t237 92.5q153 0 240.5 -92t87.5 -256q0 -165 -87.5 -256.5t-240.5 -91.5q-150 0 -237 92t-87 256z" />
<glyph unicode="&#x2026;" horiz-adv-x="1558" d="M78 154q0 79 48.5 125.5t135.5 46.5q84 0 132 -46.5t48 -125.5q0 -80 -48 -127t-132 -47q-87 0 -135.5 47t-48.5 127zM598 154q0 79 48.5 125.5t133.5 46.5t134 -46.5t49 -125.5q0 -80 -48.5 -127t-134.5 -47t-134 47t-48 127zM1118 154q0 79 48.5 125.5t133.5 46.5 t134 -46.5t49 -125.5q0 -80 -48.5 -127t-134.5 -47t-134 47t-48 127z" />
<glyph unicode="&#x202f;" horiz-adv-x="390" />
<glyph unicode="&#x2039;" horiz-adv-x="770" d="M63 578q0 67 54 124l266 275h350l-381 -399l381 -400h-350l-266 273q-54 54 -54 127z" />
<glyph unicode="&#x203a;" horiz-adv-x="770" d="M37 178l381 400l-381 399h350l266 -275q54 -60 54 -124q0 -70 -54 -127l-266 -273h-350z" />
<glyph unicode="&#x205f;" horiz-adv-x="488" />
<glyph unicode="&#x20ac;" d="M49 500v205h135v118h-135v205h139q15 243 163 376.5t378 133.5q162 0 324 -53l96 -31l-39 -262l-90 27q-167 49 -254 49q-109 0 -172.5 -59.5t-69.5 -180.5h381v-205h-387v-118h387v-205h-383q6 -122 70 -184t174 -62q100 0 250 47l94 29l39 -262l-92 -27 q-187 -55 -328 -55q-232 0 -380 134t-161 380h-139z" />
<glyph unicode="&#x2122;" horiz-adv-x="1886" d="M80 1343v181h696v-181h-229v-675h-236v675h-231zM866 668v725q0 67 45.5 104t124.5 37q78 0 123.5 -34.5t59.5 -92.5l106 -395l115 399q32 119 182 119q73 0 117.5 -37.5t44.5 -97.5v-727h-209v544l-135 -471q-21 -79 -119 -79q-100 0 -121 79l-131 471v-544h-203z" />
<glyph unicode="&#x25fc;" horiz-adv-x="1126" d="M0 0v1126h1126v-1126h-1126z" />
</font>
</defs>
</svg>
